<mxfile host="65bd71144e">
    <diagram id="z9cHiV7LYVwc2n7kxFMk" name="Pre-Normalization">
        <mxGraphModel dx="555" dy="1160" grid="0" gridSize="10" guides="1" tooltips="1" connect="1" arrows="1" fold="1" page="1" pageScale="1" pageWidth="850" pageHeight="1100" math="0" shadow="0">
            <root>
                <mxCell id="0"/>
                <mxCell id="1" parent="0"/>
                <mxCell id="LxoLxbBOV1pquFRGzBO--14" value="Listings" style="shape=table;startSize=30;container=1;collapsible=1;childLayout=tableLayout;fixedRows=1;rowLines=0;fontStyle=1;align=center;resizeLast=1;" parent="1" vertex="1">
                    <mxGeometry x="25" y="35" width="241" height="294" as="geometry"/>
                </mxCell>
                <mxCell id="LxoLxbBOV1pquFRGzBO--15" value="" style="shape=partialRectangle;collapsible=0;dropTarget=0;pointerEvents=0;fillColor=none;top=0;left=0;bottom=1;right=0;points=[[0,0.5],[1,0.5]];portConstraint=eastwest;" parent="LxoLxbBOV1pquFRGzBO--14" vertex="1">
                    <mxGeometry y="30" width="241" height="30" as="geometry"/>
                </mxCell>
                <mxCell id="LxoLxbBOV1pquFRGzBO--16" value="PK" style="shape=partialRectangle;connectable=0;fillColor=none;top=0;left=0;bottom=0;right=0;fontStyle=1;overflow=hidden;" parent="LxoLxbBOV1pquFRGzBO--15" vertex="1">
                    <mxGeometry width="30" height="30" as="geometry">
                        <mxRectangle width="30" height="30" as="alternateBounds"/>
                    </mxGeometry>
                </mxCell>
                <mxCell id="LxoLxbBOV1pquFRGzBO--17" value="Car VIN" style="shape=partialRectangle;connectable=0;fillColor=none;top=0;left=0;bottom=0;right=0;align=left;spacingLeft=6;fontStyle=5;overflow=hidden;" parent="LxoLxbBOV1pquFRGzBO--15" vertex="1">
                    <mxGeometry x="30" width="211" height="30" as="geometry">
                        <mxRectangle width="286" height="30" as="alternateBounds"/>
                    </mxGeometry>
                </mxCell>
                <mxCell id="LxoLxbBOV1pquFRGzBO--18" value="" style="shape=partialRectangle;collapsible=0;dropTarget=0;pointerEvents=0;fillColor=none;top=0;left=0;bottom=0;right=0;points=[[0,0.5],[1,0.5]];portConstraint=eastwest;" parent="LxoLxbBOV1pquFRGzBO--14" vertex="1">
                    <mxGeometry y="60" width="241" height="29" as="geometry"/>
                </mxCell>
                <mxCell id="LxoLxbBOV1pquFRGzBO--19" value="" style="shape=partialRectangle;connectable=0;fillColor=none;top=0;left=0;bottom=0;right=0;editable=1;overflow=hidden;" parent="LxoLxbBOV1pquFRGzBO--18" vertex="1">
                    <mxGeometry width="30" height="29" as="geometry">
                        <mxRectangle width="30" height="29" as="alternateBounds"/>
                    </mxGeometry>
                </mxCell>
                <mxCell id="LxoLxbBOV1pquFRGzBO--20" value="Color" style="shape=partialRectangle;connectable=0;fillColor=none;top=0;left=0;bottom=0;right=0;align=left;spacingLeft=6;overflow=hidden;" parent="LxoLxbBOV1pquFRGzBO--18" vertex="1">
                    <mxGeometry x="30" width="211" height="29" as="geometry">
                        <mxRectangle width="286" height="29" as="alternateBounds"/>
                    </mxGeometry>
                </mxCell>
                <mxCell id="LxoLxbBOV1pquFRGzBO--21" value="" style="shape=partialRectangle;collapsible=0;dropTarget=0;pointerEvents=0;fillColor=none;top=0;left=0;bottom=0;right=0;points=[[0,0.5],[1,0.5]];portConstraint=eastwest;" parent="LxoLxbBOV1pquFRGzBO--14" vertex="1">
                    <mxGeometry y="89" width="241" height="30" as="geometry"/>
                </mxCell>
                <mxCell id="LxoLxbBOV1pquFRGzBO--22" value="" style="shape=partialRectangle;connectable=0;fillColor=none;top=0;left=0;bottom=0;right=0;editable=1;overflow=hidden;" parent="LxoLxbBOV1pquFRGzBO--21" vertex="1">
                    <mxGeometry width="30" height="30" as="geometry">
                        <mxRectangle width="30" height="30" as="alternateBounds"/>
                    </mxGeometry>
                </mxCell>
                <mxCell id="LxoLxbBOV1pquFRGzBO--23" value="Make" style="shape=partialRectangle;connectable=0;fillColor=none;top=0;left=0;bottom=0;right=0;align=left;spacingLeft=6;overflow=hidden;" parent="LxoLxbBOV1pquFRGzBO--21" vertex="1">
                    <mxGeometry x="30" width="211" height="30" as="geometry">
                        <mxRectangle width="286" height="30" as="alternateBounds"/>
                    </mxGeometry>
                </mxCell>
                <mxCell id="LxoLxbBOV1pquFRGzBO--24" value="" style="shape=partialRectangle;collapsible=0;dropTarget=0;pointerEvents=0;fillColor=none;top=0;left=0;bottom=0;right=0;points=[[0,0.5],[1,0.5]];portConstraint=eastwest;" parent="LxoLxbBOV1pquFRGzBO--14" vertex="1">
                    <mxGeometry y="119" width="241" height="30" as="geometry"/>
                </mxCell>
                <mxCell id="LxoLxbBOV1pquFRGzBO--25" value="" style="shape=partialRectangle;connectable=0;fillColor=none;top=0;left=0;bottom=0;right=0;editable=1;overflow=hidden;" parent="LxoLxbBOV1pquFRGzBO--24" vertex="1">
                    <mxGeometry width="30" height="30" as="geometry">
                        <mxRectangle width="30" height="30" as="alternateBounds"/>
                    </mxGeometry>
                </mxCell>
                <mxCell id="LxoLxbBOV1pquFRGzBO--26" value="Model" style="shape=partialRectangle;connectable=0;fillColor=none;top=0;left=0;bottom=0;right=0;align=left;spacingLeft=6;overflow=hidden;" parent="LxoLxbBOV1pquFRGzBO--24" vertex="1">
                    <mxGeometry x="30" width="211" height="30" as="geometry">
                        <mxRectangle width="286" height="30" as="alternateBounds"/>
                    </mxGeometry>
                </mxCell>
                <mxCell id="WTRS7NRZ-bjB5NnBCc7M-14" style="shape=partialRectangle;collapsible=0;dropTarget=0;pointerEvents=0;fillColor=none;top=0;left=0;bottom=0;right=0;points=[[0,0.5],[1,0.5]];portConstraint=eastwest;" parent="LxoLxbBOV1pquFRGzBO--14" vertex="1">
                    <mxGeometry y="149" width="241" height="30" as="geometry"/>
                </mxCell>
                <mxCell id="WTRS7NRZ-bjB5NnBCc7M-15" style="shape=partialRectangle;connectable=0;fillColor=none;top=0;left=0;bottom=0;right=0;editable=1;overflow=hidden;" parent="WTRS7NRZ-bjB5NnBCc7M-14" vertex="1">
                    <mxGeometry width="30" height="30" as="geometry">
                        <mxRectangle width="30" height="30" as="alternateBounds"/>
                    </mxGeometry>
                </mxCell>
                <mxCell id="WTRS7NRZ-bjB5NnBCc7M-16" value="Year" style="shape=partialRectangle;connectable=0;fillColor=none;top=0;left=0;bottom=0;right=0;align=left;spacingLeft=6;overflow=hidden;" parent="WTRS7NRZ-bjB5NnBCc7M-14" vertex="1">
                    <mxGeometry x="30" width="211" height="30" as="geometry">
                        <mxRectangle width="286" height="30" as="alternateBounds"/>
                    </mxGeometry>
                </mxCell>
                <mxCell id="LxoLxbBOV1pquFRGzBO--30" value="" style="shape=partialRectangle;collapsible=0;dropTarget=0;pointerEvents=0;fillColor=none;top=0;left=0;bottom=0;right=0;points=[[0,0.5],[1,0.5]];portConstraint=eastwest;" parent="LxoLxbBOV1pquFRGzBO--14" vertex="1">
                    <mxGeometry y="179" width="241" height="30" as="geometry"/>
                </mxCell>
                <mxCell id="LxoLxbBOV1pquFRGzBO--31" value="" style="shape=partialRectangle;connectable=0;fillColor=none;top=0;left=0;bottom=0;right=0;editable=1;overflow=hidden;" parent="LxoLxbBOV1pquFRGzBO--30" vertex="1">
                    <mxGeometry width="30" height="30" as="geometry">
                        <mxRectangle width="30" height="30" as="alternateBounds"/>
                    </mxGeometry>
                </mxCell>
                <mxCell id="LxoLxbBOV1pquFRGzBO--32" value="Mileage" style="shape=partialRectangle;connectable=0;fillColor=none;top=0;left=0;bottom=0;right=0;align=left;spacingLeft=6;overflow=hidden;" parent="LxoLxbBOV1pquFRGzBO--30" vertex="1">
                    <mxGeometry x="30" width="211" height="30" as="geometry">
                        <mxRectangle width="286" height="30" as="alternateBounds"/>
                    </mxGeometry>
                </mxCell>
                <mxCell id="WTRS7NRZ-bjB5NnBCc7M-17" style="shape=partialRectangle;collapsible=0;dropTarget=0;pointerEvents=0;fillColor=none;top=0;left=0;bottom=0;right=0;points=[[0,0.5],[1,0.5]];portConstraint=eastwest;" parent="LxoLxbBOV1pquFRGzBO--14" vertex="1">
                    <mxGeometry y="209" width="241" height="30" as="geometry"/>
                </mxCell>
                <mxCell id="WTRS7NRZ-bjB5NnBCc7M-18" style="shape=partialRectangle;connectable=0;fillColor=none;top=0;left=0;bottom=0;right=0;editable=1;overflow=hidden;" parent="WTRS7NRZ-bjB5NnBCc7M-17" vertex="1">
                    <mxGeometry width="30" height="30" as="geometry">
                        <mxRectangle width="30" height="30" as="alternateBounds"/>
                    </mxGeometry>
                </mxCell>
                <mxCell id="WTRS7NRZ-bjB5NnBCc7M-19" value="Price" style="shape=partialRectangle;connectable=0;fillColor=none;top=0;left=0;bottom=0;right=0;align=left;spacingLeft=6;overflow=hidden;" parent="WTRS7NRZ-bjB5NnBCc7M-17" vertex="1">
                    <mxGeometry x="30" width="211" height="30" as="geometry">
                        <mxRectangle width="286" height="30" as="alternateBounds"/>
                    </mxGeometry>
                </mxCell>
                <mxCell id="LxoLxbBOV1pquFRGzBO--27" value="" style="shape=partialRectangle;collapsible=0;dropTarget=0;pointerEvents=0;fillColor=none;top=0;left=0;bottom=0;right=0;points=[[0,0.5],[1,0.5]];portConstraint=eastwest;" parent="LxoLxbBOV1pquFRGzBO--14" vertex="1">
                    <mxGeometry y="239" width="241" height="30" as="geometry"/>
                </mxCell>
                <mxCell id="LxoLxbBOV1pquFRGzBO--28" value="" style="shape=partialRectangle;connectable=0;fillColor=none;top=0;left=0;bottom=0;right=0;editable=1;overflow=hidden;" parent="LxoLxbBOV1pquFRGzBO--27" vertex="1">
                    <mxGeometry width="30" height="30" as="geometry">
                        <mxRectangle width="30" height="30" as="alternateBounds"/>
                    </mxGeometry>
                </mxCell>
                <mxCell id="LxoLxbBOV1pquFRGzBO--29" value="Owner" style="shape=partialRectangle;connectable=0;fillColor=none;top=0;left=0;bottom=0;right=0;align=left;spacingLeft=6;overflow=hidden;" parent="LxoLxbBOV1pquFRGzBO--27" vertex="1">
                    <mxGeometry x="30" width="211" height="30" as="geometry">
                        <mxRectangle width="286" height="30" as="alternateBounds"/>
                    </mxGeometry>
                </mxCell>
                <mxCell id="14" value="User Transaction" style="shape=table;startSize=30;container=1;collapsible=1;childLayout=tableLayout;fixedRows=1;rowLines=0;fontStyle=1;align=center;resizeLast=1;" parent="1" vertex="1">
                    <mxGeometry x="474" y="82" width="180" height="210" as="geometry"/>
                </mxCell>
                <mxCell id="15" value="" style="shape=partialRectangle;collapsible=0;dropTarget=0;pointerEvents=0;fillColor=none;top=0;left=0;bottom=1;right=0;points=[[0,0.5],[1,0.5]];portConstraint=eastwest;" parent="14" vertex="1">
                    <mxGeometry y="30" width="180" height="30" as="geometry"/>
                </mxCell>
                <mxCell id="16" value="PK" style="shape=partialRectangle;connectable=0;fillColor=none;top=0;left=0;bottom=0;right=0;fontStyle=1;overflow=hidden;" parent="15" vertex="1">
                    <mxGeometry width="30" height="30" as="geometry"/>
                </mxCell>
                <mxCell id="17" value="Transaction ID" style="shape=partialRectangle;connectable=0;fillColor=none;top=0;left=0;bottom=0;right=0;align=left;spacingLeft=6;fontStyle=5;overflow=hidden;" parent="15" vertex="1">
                    <mxGeometry x="30" width="150" height="30" as="geometry"/>
                </mxCell>
                <mxCell id="18" value="" style="shape=partialRectangle;collapsible=0;dropTarget=0;pointerEvents=0;fillColor=none;top=0;left=0;bottom=0;right=0;points=[[0,0.5],[1,0.5]];portConstraint=eastwest;" parent="14" vertex="1">
                    <mxGeometry y="60" width="180" height="30" as="geometry"/>
                </mxCell>
                <mxCell id="19" value="" style="shape=partialRectangle;connectable=0;fillColor=none;top=0;left=0;bottom=0;right=0;editable=1;overflow=hidden;" parent="18" vertex="1">
                    <mxGeometry width="30" height="30" as="geometry"/>
                </mxCell>
                <mxCell id="20" value="Transaction Amount" style="shape=partialRectangle;connectable=0;fillColor=none;top=0;left=0;bottom=0;right=0;align=left;spacingLeft=6;overflow=hidden;" parent="18" vertex="1">
                    <mxGeometry x="30" width="150" height="30" as="geometry"/>
                </mxCell>
                <mxCell id="21" value="" style="shape=partialRectangle;collapsible=0;dropTarget=0;pointerEvents=0;fillColor=none;top=0;left=0;bottom=0;right=0;points=[[0,0.5],[1,0.5]];portConstraint=eastwest;" parent="14" vertex="1">
                    <mxGeometry y="90" width="180" height="30" as="geometry"/>
                </mxCell>
                <mxCell id="22" value="" style="shape=partialRectangle;connectable=0;fillColor=none;top=0;left=0;bottom=0;right=0;editable=1;overflow=hidden;" parent="21" vertex="1">
                    <mxGeometry width="30" height="30" as="geometry"/>
                </mxCell>
                <mxCell id="23" value="Transaction Date" style="shape=partialRectangle;connectable=0;fillColor=none;top=0;left=0;bottom=0;right=0;align=left;spacingLeft=6;overflow=hidden;" parent="21" vertex="1">
                    <mxGeometry x="30" width="150" height="30" as="geometry"/>
                </mxCell>
                <mxCell id="24" value="" style="shape=partialRectangle;collapsible=0;dropTarget=0;pointerEvents=0;fillColor=none;top=0;left=0;bottom=0;right=0;points=[[0,0.5],[1,0.5]];portConstraint=eastwest;" parent="14" vertex="1">
                    <mxGeometry y="120" width="180" height="30" as="geometry"/>
                </mxCell>
                <mxCell id="25" value="FK" style="shape=partialRectangle;connectable=0;fillColor=none;top=0;left=0;bottom=0;right=0;editable=1;overflow=hidden;" parent="24" vertex="1">
                    <mxGeometry width="30" height="30" as="geometry"/>
                </mxCell>
                <mxCell id="26" value="Car VIN" style="shape=partialRectangle;connectable=0;fillColor=none;top=0;left=0;bottom=0;right=0;align=left;spacingLeft=6;overflow=hidden;" parent="24" vertex="1">
                    <mxGeometry x="30" width="150" height="30" as="geometry"/>
                </mxCell>
                <mxCell id="lOiy83-noz7VkIbF29HJ-52" value="" style="shape=partialRectangle;collapsible=0;dropTarget=0;pointerEvents=0;fillColor=none;top=0;left=0;bottom=0;right=0;points=[[0,0.5],[1,0.5]];portConstraint=eastwest;" parent="14" vertex="1">
                    <mxGeometry y="150" width="180" height="30" as="geometry"/>
                </mxCell>
                <mxCell id="lOiy83-noz7VkIbF29HJ-53" value="FK" style="shape=partialRectangle;connectable=0;fillColor=none;top=0;left=0;bottom=0;right=0;editable=1;overflow=hidden;" parent="lOiy83-noz7VkIbF29HJ-52" vertex="1">
                    <mxGeometry width="30" height="30" as="geometry"/>
                </mxCell>
                <mxCell id="lOiy83-noz7VkIbF29HJ-54" value="Buyer Name" style="shape=partialRectangle;connectable=0;fillColor=none;top=0;left=0;bottom=0;right=0;align=left;spacingLeft=6;overflow=hidden;" parent="lOiy83-noz7VkIbF29HJ-52" vertex="1">
                    <mxGeometry x="30" width="150" height="30" as="geometry"/>
                </mxCell>
                <mxCell id="lOiy83-noz7VkIbF29HJ-55" value="" style="shape=partialRectangle;collapsible=0;dropTarget=0;pointerEvents=0;fillColor=none;top=0;left=0;bottom=0;right=0;points=[[0,0.5],[1,0.5]];portConstraint=eastwest;" parent="14" vertex="1">
                    <mxGeometry y="180" width="180" height="30" as="geometry"/>
                </mxCell>
                <mxCell id="lOiy83-noz7VkIbF29HJ-56" value="FK" style="shape=partialRectangle;connectable=0;fillColor=none;top=0;left=0;bottom=0;right=0;editable=1;overflow=hidden;" parent="lOiy83-noz7VkIbF29HJ-55" vertex="1">
                    <mxGeometry width="30" height="30" as="geometry"/>
                </mxCell>
                <mxCell id="lOiy83-noz7VkIbF29HJ-57" value="Seller Name" style="shape=partialRectangle;connectable=0;fillColor=none;top=0;left=0;bottom=0;right=0;align=left;spacingLeft=6;overflow=hidden;" parent="lOiy83-noz7VkIbF29HJ-55" vertex="1">
                    <mxGeometry x="30" width="150" height="30" as="geometry"/>
                </mxCell>
                <mxCell id="WTRS7NRZ-bjB5NnBCc7M-85" value="Account Listings" style="shape=table;startSize=30;container=1;collapsible=1;childLayout=tableLayout;fixedRows=1;rowLines=0;fontStyle=1;align=center;resizeLast=1;" parent="1" vertex="1">
                    <mxGeometry x="69" y="424" width="241" height="301" as="geometry"/>
                </mxCell>
                <mxCell id="WTRS7NRZ-bjB5NnBCc7M-86" value="" style="shape=partialRectangle;collapsible=0;dropTarget=0;pointerEvents=0;fillColor=none;top=0;left=0;bottom=1;right=0;points=[[0,0.5],[1,0.5]];portConstraint=eastwest;" parent="WTRS7NRZ-bjB5NnBCc7M-85" vertex="1">
                    <mxGeometry y="30" width="241" height="30" as="geometry"/>
                </mxCell>
                <mxCell id="WTRS7NRZ-bjB5NnBCc7M-87" value="PK" style="shape=partialRectangle;connectable=0;fillColor=none;top=0;left=0;bottom=0;right=0;fontStyle=1;overflow=hidden;" parent="WTRS7NRZ-bjB5NnBCc7M-86" vertex="1">
                    <mxGeometry width="30" height="30" as="geometry">
                        <mxRectangle width="30" height="30" as="alternateBounds"/>
                    </mxGeometry>
                </mxCell>
                <mxCell id="WTRS7NRZ-bjB5NnBCc7M-88" value="Car VIN" style="shape=partialRectangle;connectable=0;fillColor=none;top=0;left=0;bottom=0;right=0;align=left;spacingLeft=6;fontStyle=5;overflow=hidden;" parent="WTRS7NRZ-bjB5NnBCc7M-86" vertex="1">
                    <mxGeometry x="30" width="211" height="30" as="geometry">
                        <mxRectangle width="286" height="30" as="alternateBounds"/>
                    </mxGeometry>
                </mxCell>
                <mxCell id="WTRS7NRZ-bjB5NnBCc7M-89" value="" style="shape=partialRectangle;collapsible=0;dropTarget=0;pointerEvents=0;fillColor=none;top=0;left=0;bottom=0;right=0;points=[[0,0.5],[1,0.5]];portConstraint=eastwest;" parent="WTRS7NRZ-bjB5NnBCc7M-85" vertex="1">
                    <mxGeometry y="60" width="241" height="29" as="geometry"/>
                </mxCell>
                <mxCell id="WTRS7NRZ-bjB5NnBCc7M-90" value="" style="shape=partialRectangle;connectable=0;fillColor=none;top=0;left=0;bottom=0;right=0;editable=1;overflow=hidden;" parent="WTRS7NRZ-bjB5NnBCc7M-89" vertex="1">
                    <mxGeometry width="30" height="29" as="geometry">
                        <mxRectangle width="30" height="29" as="alternateBounds"/>
                    </mxGeometry>
                </mxCell>
                <mxCell id="WTRS7NRZ-bjB5NnBCc7M-91" value="Color" style="shape=partialRectangle;connectable=0;fillColor=none;top=0;left=0;bottom=0;right=0;align=left;spacingLeft=6;overflow=hidden;" parent="WTRS7NRZ-bjB5NnBCc7M-89" vertex="1">
                    <mxGeometry x="30" width="211" height="29" as="geometry">
                        <mxRectangle width="286" height="29" as="alternateBounds"/>
                    </mxGeometry>
                </mxCell>
                <mxCell id="WTRS7NRZ-bjB5NnBCc7M-92" value="" style="shape=partialRectangle;collapsible=0;dropTarget=0;pointerEvents=0;fillColor=none;top=0;left=0;bottom=0;right=0;points=[[0,0.5],[1,0.5]];portConstraint=eastwest;" parent="WTRS7NRZ-bjB5NnBCc7M-85" vertex="1">
                    <mxGeometry y="89" width="241" height="30" as="geometry"/>
                </mxCell>
                <mxCell id="WTRS7NRZ-bjB5NnBCc7M-93" value="" style="shape=partialRectangle;connectable=0;fillColor=none;top=0;left=0;bottom=0;right=0;editable=1;overflow=hidden;" parent="WTRS7NRZ-bjB5NnBCc7M-92" vertex="1">
                    <mxGeometry width="30" height="30" as="geometry">
                        <mxRectangle width="30" height="30" as="alternateBounds"/>
                    </mxGeometry>
                </mxCell>
                <mxCell id="WTRS7NRZ-bjB5NnBCc7M-94" value="Make" style="shape=partialRectangle;connectable=0;fillColor=none;top=0;left=0;bottom=0;right=0;align=left;spacingLeft=6;overflow=hidden;" parent="WTRS7NRZ-bjB5NnBCc7M-92" vertex="1">
                    <mxGeometry x="30" width="211" height="30" as="geometry">
                        <mxRectangle width="286" height="30" as="alternateBounds"/>
                    </mxGeometry>
                </mxCell>
                <mxCell id="WTRS7NRZ-bjB5NnBCc7M-95" value="" style="shape=partialRectangle;collapsible=0;dropTarget=0;pointerEvents=0;fillColor=none;top=0;left=0;bottom=0;right=0;points=[[0,0.5],[1,0.5]];portConstraint=eastwest;" parent="WTRS7NRZ-bjB5NnBCc7M-85" vertex="1">
                    <mxGeometry y="119" width="241" height="30" as="geometry"/>
                </mxCell>
                <mxCell id="WTRS7NRZ-bjB5NnBCc7M-96" value="" style="shape=partialRectangle;connectable=0;fillColor=none;top=0;left=0;bottom=0;right=0;editable=1;overflow=hidden;" parent="WTRS7NRZ-bjB5NnBCc7M-95" vertex="1">
                    <mxGeometry width="30" height="30" as="geometry">
                        <mxRectangle width="30" height="30" as="alternateBounds"/>
                    </mxGeometry>
                </mxCell>
                <mxCell id="WTRS7NRZ-bjB5NnBCc7M-97" value="Model" style="shape=partialRectangle;connectable=0;fillColor=none;top=0;left=0;bottom=0;right=0;align=left;spacingLeft=6;overflow=hidden;" parent="WTRS7NRZ-bjB5NnBCc7M-95" vertex="1">
                    <mxGeometry x="30" width="211" height="30" as="geometry">
                        <mxRectangle width="286" height="30" as="alternateBounds"/>
                    </mxGeometry>
                </mxCell>
                <mxCell id="WTRS7NRZ-bjB5NnBCc7M-98" style="shape=partialRectangle;collapsible=0;dropTarget=0;pointerEvents=0;fillColor=none;top=0;left=0;bottom=0;right=0;points=[[0,0.5],[1,0.5]];portConstraint=eastwest;" parent="WTRS7NRZ-bjB5NnBCc7M-85" vertex="1">
                    <mxGeometry y="149" width="241" height="30" as="geometry"/>
                </mxCell>
                <mxCell id="WTRS7NRZ-bjB5NnBCc7M-99" style="shape=partialRectangle;connectable=0;fillColor=none;top=0;left=0;bottom=0;right=0;editable=1;overflow=hidden;" parent="WTRS7NRZ-bjB5NnBCc7M-98" vertex="1">
                    <mxGeometry width="30" height="30" as="geometry">
                        <mxRectangle width="30" height="30" as="alternateBounds"/>
                    </mxGeometry>
                </mxCell>
                <mxCell id="WTRS7NRZ-bjB5NnBCc7M-100" value="Year" style="shape=partialRectangle;connectable=0;fillColor=none;top=0;left=0;bottom=0;right=0;align=left;spacingLeft=6;overflow=hidden;" parent="WTRS7NRZ-bjB5NnBCc7M-98" vertex="1">
                    <mxGeometry x="30" width="211" height="30" as="geometry">
                        <mxRectangle width="286" height="30" as="alternateBounds"/>
                    </mxGeometry>
                </mxCell>
                <mxCell id="WTRS7NRZ-bjB5NnBCc7M-101" value="" style="shape=partialRectangle;collapsible=0;dropTarget=0;pointerEvents=0;fillColor=none;top=0;left=0;bottom=0;right=0;points=[[0,0.5],[1,0.5]];portConstraint=eastwest;" parent="WTRS7NRZ-bjB5NnBCc7M-85" vertex="1">
                    <mxGeometry y="179" width="241" height="30" as="geometry"/>
                </mxCell>
                <mxCell id="WTRS7NRZ-bjB5NnBCc7M-102" value="" style="shape=partialRectangle;connectable=0;fillColor=none;top=0;left=0;bottom=0;right=0;editable=1;overflow=hidden;" parent="WTRS7NRZ-bjB5NnBCc7M-101" vertex="1">
                    <mxGeometry width="30" height="30" as="geometry">
                        <mxRectangle width="30" height="30" as="alternateBounds"/>
                    </mxGeometry>
                </mxCell>
                <mxCell id="WTRS7NRZ-bjB5NnBCc7M-103" value="Mileage" style="shape=partialRectangle;connectable=0;fillColor=none;top=0;left=0;bottom=0;right=0;align=left;spacingLeft=6;overflow=hidden;" parent="WTRS7NRZ-bjB5NnBCc7M-101" vertex="1">
                    <mxGeometry x="30" width="211" height="30" as="geometry">
                        <mxRectangle width="286" height="30" as="alternateBounds"/>
                    </mxGeometry>
                </mxCell>
                <mxCell id="WTRS7NRZ-bjB5NnBCc7M-104" style="shape=partialRectangle;collapsible=0;dropTarget=0;pointerEvents=0;fillColor=none;top=0;left=0;bottom=0;right=0;points=[[0,0.5],[1,0.5]];portConstraint=eastwest;" parent="WTRS7NRZ-bjB5NnBCc7M-85" vertex="1">
                    <mxGeometry y="209" width="241" height="30" as="geometry"/>
                </mxCell>
                <mxCell id="WTRS7NRZ-bjB5NnBCc7M-105" style="shape=partialRectangle;connectable=0;fillColor=none;top=0;left=0;bottom=0;right=0;editable=1;overflow=hidden;" parent="WTRS7NRZ-bjB5NnBCc7M-104" vertex="1">
                    <mxGeometry width="30" height="30" as="geometry">
                        <mxRectangle width="30" height="30" as="alternateBounds"/>
                    </mxGeometry>
                </mxCell>
                <mxCell id="WTRS7NRZ-bjB5NnBCc7M-106" value="Price" style="shape=partialRectangle;connectable=0;fillColor=none;top=0;left=0;bottom=0;right=0;align=left;spacingLeft=6;overflow=hidden;" parent="WTRS7NRZ-bjB5NnBCc7M-104" vertex="1">
                    <mxGeometry x="30" width="211" height="30" as="geometry">
                        <mxRectangle width="286" height="30" as="alternateBounds"/>
                    </mxGeometry>
                </mxCell>
                <mxCell id="WTRS7NRZ-bjB5NnBCc7M-107" style="shape=partialRectangle;collapsible=0;dropTarget=0;pointerEvents=0;fillColor=none;top=0;left=0;bottom=0;right=0;points=[[0,0.5],[1,0.5]];portConstraint=eastwest;" parent="WTRS7NRZ-bjB5NnBCc7M-85" vertex="1">
                    <mxGeometry y="239" width="241" height="30" as="geometry"/>
                </mxCell>
                <mxCell id="WTRS7NRZ-bjB5NnBCc7M-108" style="shape=partialRectangle;connectable=0;fillColor=none;top=0;left=0;bottom=0;right=0;editable=1;overflow=hidden;" parent="WTRS7NRZ-bjB5NnBCc7M-107" vertex="1">
                    <mxGeometry width="30" height="30" as="geometry">
                        <mxRectangle width="30" height="30" as="alternateBounds"/>
                    </mxGeometry>
                </mxCell>
                <mxCell id="WTRS7NRZ-bjB5NnBCc7M-109" value="Vehicle Details (Need to Expand)" style="shape=partialRectangle;connectable=0;fillColor=none;top=0;left=0;bottom=0;right=0;align=left;spacingLeft=6;overflow=hidden;" parent="WTRS7NRZ-bjB5NnBCc7M-107" vertex="1">
                    <mxGeometry x="30" width="211" height="30" as="geometry">
                        <mxRectangle width="286" height="30" as="alternateBounds"/>
                    </mxGeometry>
                </mxCell>
                <mxCell id="WTRS7NRZ-bjB5NnBCc7M-110" value="" style="shape=partialRectangle;collapsible=0;dropTarget=0;pointerEvents=0;fillColor=none;top=0;left=0;bottom=0;right=0;points=[[0,0.5],[1,0.5]];portConstraint=eastwest;" parent="WTRS7NRZ-bjB5NnBCc7M-85" vertex="1">
                    <mxGeometry y="269" width="241" height="30" as="geometry"/>
                </mxCell>
                <mxCell id="WTRS7NRZ-bjB5NnBCc7M-111" value="" style="shape=partialRectangle;connectable=0;fillColor=none;top=0;left=0;bottom=0;right=0;editable=1;overflow=hidden;" parent="WTRS7NRZ-bjB5NnBCc7M-110" vertex="1">
                    <mxGeometry width="30" height="30" as="geometry">
                        <mxRectangle width="30" height="30" as="alternateBounds"/>
                    </mxGeometry>
                </mxCell>
                <mxCell id="WTRS7NRZ-bjB5NnBCc7M-112" value="(Transactions)" style="shape=partialRectangle;connectable=0;fillColor=none;top=0;left=0;bottom=0;right=0;align=left;spacingLeft=6;overflow=hidden;" parent="WTRS7NRZ-bjB5NnBCc7M-110" vertex="1">
                    <mxGeometry x="30" width="211" height="30" as="geometry">
                        <mxRectangle width="286" height="30" as="alternateBounds"/>
                    </mxGeometry>
                </mxCell>
                <mxCell id="WTRS7NRZ-bjB5NnBCc7M-113" value="Individual Listing" style="shape=table;startSize=30;container=1;collapsible=1;childLayout=tableLayout;fixedRows=1;rowLines=0;fontStyle=1;align=center;resizeLast=1;" parent="1" vertex="1">
                    <mxGeometry x="479" y="412" width="180" height="280" as="geometry"/>
                </mxCell>
                <mxCell id="WTRS7NRZ-bjB5NnBCc7M-114" value="" style="shape=partialRectangle;collapsible=0;dropTarget=0;pointerEvents=0;fillColor=none;top=0;left=0;bottom=1;right=0;points=[[0,0.5],[1,0.5]];portConstraint=eastwest;" parent="WTRS7NRZ-bjB5NnBCc7M-113" vertex="1">
                    <mxGeometry y="30" width="180" height="30" as="geometry"/>
                </mxCell>
                <mxCell id="WTRS7NRZ-bjB5NnBCc7M-115" value="PK" style="shape=partialRectangle;connectable=0;fillColor=none;top=0;left=0;bottom=0;right=0;fontStyle=1;overflow=hidden;" parent="WTRS7NRZ-bjB5NnBCc7M-114" vertex="1">
                    <mxGeometry width="30" height="30" as="geometry"/>
                </mxCell>
                <mxCell id="WTRS7NRZ-bjB5NnBCc7M-116" value="Car VIN" style="shape=partialRectangle;connectable=0;fillColor=none;top=0;left=0;bottom=0;right=0;align=left;spacingLeft=6;fontStyle=5;overflow=hidden;" parent="WTRS7NRZ-bjB5NnBCc7M-114" vertex="1">
                    <mxGeometry x="30" width="150" height="30" as="geometry"/>
                </mxCell>
                <mxCell id="WTRS7NRZ-bjB5NnBCc7M-117" value="" style="shape=partialRectangle;collapsible=0;dropTarget=0;pointerEvents=0;fillColor=none;top=0;left=0;bottom=0;right=0;points=[[0,0.5],[1,0.5]];portConstraint=eastwest;" parent="WTRS7NRZ-bjB5NnBCc7M-113" vertex="1">
                    <mxGeometry y="60" width="180" height="30" as="geometry"/>
                </mxCell>
                <mxCell id="WTRS7NRZ-bjB5NnBCc7M-118" value="" style="shape=partialRectangle;connectable=0;fillColor=none;top=0;left=0;bottom=0;right=0;editable=1;overflow=hidden;" parent="WTRS7NRZ-bjB5NnBCc7M-117" vertex="1">
                    <mxGeometry width="30" height="30" as="geometry"/>
                </mxCell>
                <mxCell id="WTRS7NRZ-bjB5NnBCc7M-119" value="Make" style="shape=partialRectangle;connectable=0;fillColor=none;top=0;left=0;bottom=0;right=0;align=left;spacingLeft=6;overflow=hidden;" parent="WTRS7NRZ-bjB5NnBCc7M-117" vertex="1">
                    <mxGeometry x="30" width="150" height="30" as="geometry"/>
                </mxCell>
                <mxCell id="zkNsS1uSvOX7GlTAO43i-26" value="" style="shape=partialRectangle;collapsible=0;dropTarget=0;pointerEvents=0;fillColor=none;top=0;left=0;bottom=0;right=0;points=[[0,0.5],[1,0.5]];portConstraint=eastwest;" parent="WTRS7NRZ-bjB5NnBCc7M-113" vertex="1">
                    <mxGeometry y="90" width="180" height="30" as="geometry"/>
                </mxCell>
                <mxCell id="zkNsS1uSvOX7GlTAO43i-27" value="" style="shape=partialRectangle;connectable=0;fillColor=none;top=0;left=0;bottom=0;right=0;editable=1;overflow=hidden;" parent="zkNsS1uSvOX7GlTAO43i-26" vertex="1">
                    <mxGeometry width="30" height="30" as="geometry"/>
                </mxCell>
                <mxCell id="zkNsS1uSvOX7GlTAO43i-28" value="Model" style="shape=partialRectangle;connectable=0;fillColor=none;top=0;left=0;bottom=0;right=0;align=left;spacingLeft=6;overflow=hidden;" parent="zkNsS1uSvOX7GlTAO43i-26" vertex="1">
                    <mxGeometry x="30" width="150" height="30" as="geometry"/>
                </mxCell>
                <mxCell id="zkNsS1uSvOX7GlTAO43i-29" value="" style="shape=partialRectangle;collapsible=0;dropTarget=0;pointerEvents=0;fillColor=none;top=0;left=0;bottom=0;right=0;points=[[0,0.5],[1,0.5]];portConstraint=eastwest;" parent="WTRS7NRZ-bjB5NnBCc7M-113" vertex="1">
                    <mxGeometry y="120" width="180" height="30" as="geometry"/>
                </mxCell>
                <mxCell id="zkNsS1uSvOX7GlTAO43i-30" value="" style="shape=partialRectangle;connectable=0;fillColor=none;top=0;left=0;bottom=0;right=0;editable=1;overflow=hidden;" parent="zkNsS1uSvOX7GlTAO43i-29" vertex="1">
                    <mxGeometry width="30" height="30" as="geometry"/>
                </mxCell>
                <mxCell id="zkNsS1uSvOX7GlTAO43i-31" value="Price" style="shape=partialRectangle;connectable=0;fillColor=none;top=0;left=0;bottom=0;right=0;align=left;spacingLeft=6;overflow=hidden;" parent="zkNsS1uSvOX7GlTAO43i-29" vertex="1">
                    <mxGeometry x="30" width="150" height="30" as="geometry"/>
                </mxCell>
                <mxCell id="zkNsS1uSvOX7GlTAO43i-32" value="" style="shape=partialRectangle;collapsible=0;dropTarget=0;pointerEvents=0;fillColor=none;top=0;left=0;bottom=0;right=0;points=[[0,0.5],[1,0.5]];portConstraint=eastwest;" parent="WTRS7NRZ-bjB5NnBCc7M-113" vertex="1">
                    <mxGeometry y="150" width="180" height="30" as="geometry"/>
                </mxCell>
                <mxCell id="zkNsS1uSvOX7GlTAO43i-33" value="" style="shape=partialRectangle;connectable=0;fillColor=none;top=0;left=0;bottom=0;right=0;editable=1;overflow=hidden;" parent="zkNsS1uSvOX7GlTAO43i-32" vertex="1">
                    <mxGeometry width="30" height="30" as="geometry"/>
                </mxCell>
                <mxCell id="zkNsS1uSvOX7GlTAO43i-34" value="Year" style="shape=partialRectangle;connectable=0;fillColor=none;top=0;left=0;bottom=0;right=0;align=left;spacingLeft=6;overflow=hidden;" parent="zkNsS1uSvOX7GlTAO43i-32" vertex="1">
                    <mxGeometry x="30" width="150" height="30" as="geometry"/>
                </mxCell>
                <mxCell id="zkNsS1uSvOX7GlTAO43i-35" value="" style="shape=partialRectangle;collapsible=0;dropTarget=0;pointerEvents=0;fillColor=none;top=0;left=0;bottom=0;right=0;points=[[0,0.5],[1,0.5]];portConstraint=eastwest;" parent="WTRS7NRZ-bjB5NnBCc7M-113" vertex="1">
                    <mxGeometry y="180" width="180" height="30" as="geometry"/>
                </mxCell>
                <mxCell id="zkNsS1uSvOX7GlTAO43i-36" value="" style="shape=partialRectangle;connectable=0;fillColor=none;top=0;left=0;bottom=0;right=0;editable=1;overflow=hidden;" parent="zkNsS1uSvOX7GlTAO43i-35" vertex="1">
                    <mxGeometry width="30" height="30" as="geometry"/>
                </mxCell>
                <mxCell id="zkNsS1uSvOX7GlTAO43i-37" value="Seller Name" style="shape=partialRectangle;connectable=0;fillColor=none;top=0;left=0;bottom=0;right=0;align=left;spacingLeft=6;overflow=hidden;" parent="zkNsS1uSvOX7GlTAO43i-35" vertex="1">
                    <mxGeometry x="30" width="150" height="30" as="geometry"/>
                </mxCell>
                <mxCell id="zkNsS1uSvOX7GlTAO43i-38" value="" style="shape=partialRectangle;collapsible=0;dropTarget=0;pointerEvents=0;fillColor=none;top=0;left=0;bottom=0;right=0;points=[[0,0.5],[1,0.5]];portConstraint=eastwest;" parent="WTRS7NRZ-bjB5NnBCc7M-113" vertex="1">
                    <mxGeometry y="210" width="180" height="30" as="geometry"/>
                </mxCell>
                <mxCell id="zkNsS1uSvOX7GlTAO43i-39" value="" style="shape=partialRectangle;connectable=0;fillColor=none;top=0;left=0;bottom=0;right=0;editable=1;overflow=hidden;" parent="zkNsS1uSvOX7GlTAO43i-38" vertex="1">
                    <mxGeometry width="30" height="30" as="geometry"/>
                </mxCell>
                <mxCell id="zkNsS1uSvOX7GlTAO43i-40" value="Mileage" style="shape=partialRectangle;connectable=0;fillColor=none;top=0;left=0;bottom=0;right=0;align=left;spacingLeft=6;overflow=hidden;" parent="zkNsS1uSvOX7GlTAO43i-38" vertex="1">
                    <mxGeometry x="30" width="150" height="30" as="geometry"/>
                </mxCell>
                <mxCell id="zkNsS1uSvOX7GlTAO43i-41" value="" style="shape=partialRectangle;collapsible=0;dropTarget=0;pointerEvents=0;fillColor=none;top=0;left=0;bottom=0;right=0;points=[[0,0.5],[1,0.5]];portConstraint=eastwest;" parent="WTRS7NRZ-bjB5NnBCc7M-113" vertex="1">
                    <mxGeometry y="240" width="180" height="30" as="geometry"/>
                </mxCell>
                <mxCell id="zkNsS1uSvOX7GlTAO43i-42" value="" style="shape=partialRectangle;connectable=0;fillColor=none;top=0;left=0;bottom=0;right=0;editable=1;overflow=hidden;" parent="zkNsS1uSvOX7GlTAO43i-41" vertex="1">
                    <mxGeometry width="30" height="30" as="geometry"/>
                </mxCell>
                <mxCell id="zkNsS1uSvOX7GlTAO43i-43" value="(Vehicle Details)" style="shape=partialRectangle;connectable=0;fillColor=none;top=0;left=0;bottom=0;right=0;align=left;spacingLeft=6;overflow=hidden;" parent="zkNsS1uSvOX7GlTAO43i-41" vertex="1">
                    <mxGeometry x="30" width="150" height="30" as="geometry"/>
                </mxCell>
            </root>
        </mxGraphModel>
    </diagram>
    <diagram id="McAHU6n_5wHsqs6pbCve" name="1NF">
        <mxGraphModel dx="1835" dy="1160" grid="0" gridSize="10" guides="1" tooltips="1" connect="1" arrows="1" fold="1" page="1" pageScale="1" pageWidth="850" pageHeight="1100" math="0" shadow="0">
            <root>
                <mxCell id="XprqFiinilp-T4zNDX8G-0"/>
                <mxCell id="XprqFiinilp-T4zNDX8G-1" parent="XprqFiinilp-T4zNDX8G-0"/>
                <mxCell id="5FVqirz41ANABD8_JTT8-0" value="User" style="shape=table;startSize=30;container=1;collapsible=1;childLayout=tableLayout;fixedRows=1;rowLines=0;fontStyle=1;align=center;resizeLast=1;fillColor=none;" parent="XprqFiinilp-T4zNDX8G-1" vertex="1">
                    <mxGeometry x="1313" y="107" width="180" height="160" as="geometry"/>
                </mxCell>
                <mxCell id="5FVqirz41ANABD8_JTT8-1" value="" style="shape=partialRectangle;collapsible=0;dropTarget=0;pointerEvents=0;fillColor=none;top=0;left=0;bottom=1;right=0;points=[[0,0.5],[1,0.5]];portConstraint=eastwest;" parent="5FVqirz41ANABD8_JTT8-0" vertex="1">
                    <mxGeometry y="30" width="180" height="30" as="geometry"/>
                </mxCell>
                <mxCell id="5FVqirz41ANABD8_JTT8-2" value="PK" style="shape=partialRectangle;connectable=0;fillColor=none;top=0;left=0;bottom=0;right=0;fontStyle=1;overflow=hidden;" parent="5FVqirz41ANABD8_JTT8-1" vertex="1">
                    <mxGeometry width="30" height="30" as="geometry"/>
                </mxCell>
                <mxCell id="5FVqirz41ANABD8_JTT8-3" value="User ID" style="shape=partialRectangle;connectable=0;fillColor=none;top=0;left=0;bottom=0;right=0;align=left;spacingLeft=6;fontStyle=5;overflow=hidden;" parent="5FVqirz41ANABD8_JTT8-1" vertex="1">
                    <mxGeometry x="30" width="150" height="30" as="geometry"/>
                </mxCell>
                <mxCell id="5FVqirz41ANABD8_JTT8-4" value="" style="shape=partialRectangle;collapsible=0;dropTarget=0;pointerEvents=0;fillColor=none;top=0;left=0;bottom=0;right=0;points=[[0,0.5],[1,0.5]];portConstraint=eastwest;" parent="5FVqirz41ANABD8_JTT8-0" vertex="1">
                    <mxGeometry y="60" width="180" height="30" as="geometry"/>
                </mxCell>
                <mxCell id="5FVqirz41ANABD8_JTT8-5" value="" style="shape=partialRectangle;connectable=0;fillColor=none;top=0;left=0;bottom=0;right=0;editable=1;overflow=hidden;" parent="5FVqirz41ANABD8_JTT8-4" vertex="1">
                    <mxGeometry width="30" height="30" as="geometry"/>
                </mxCell>
                <mxCell id="5FVqirz41ANABD8_JTT8-6" value="First Name" style="shape=partialRectangle;connectable=0;fillColor=none;top=0;left=0;bottom=0;right=0;align=left;spacingLeft=6;overflow=hidden;" parent="5FVqirz41ANABD8_JTT8-4" vertex="1">
                    <mxGeometry x="30" width="150" height="30" as="geometry"/>
                </mxCell>
                <mxCell id="5FVqirz41ANABD8_JTT8-7" value="" style="shape=partialRectangle;collapsible=0;dropTarget=0;pointerEvents=0;fillColor=none;top=0;left=0;bottom=0;right=0;points=[[0,0.5],[1,0.5]];portConstraint=eastwest;" parent="5FVqirz41ANABD8_JTT8-0" vertex="1">
                    <mxGeometry y="90" width="180" height="30" as="geometry"/>
                </mxCell>
                <mxCell id="5FVqirz41ANABD8_JTT8-8" value="" style="shape=partialRectangle;connectable=0;fillColor=none;top=0;left=0;bottom=0;right=0;editable=1;overflow=hidden;" parent="5FVqirz41ANABD8_JTT8-7" vertex="1">
                    <mxGeometry width="30" height="30" as="geometry"/>
                </mxCell>
                <mxCell id="5FVqirz41ANABD8_JTT8-9" value="Last Name" style="shape=partialRectangle;connectable=0;fillColor=none;top=0;left=0;bottom=0;right=0;align=left;spacingLeft=6;overflow=hidden;" parent="5FVqirz41ANABD8_JTT8-7" vertex="1">
                    <mxGeometry x="30" width="150" height="30" as="geometry"/>
                </mxCell>
                <mxCell id="5FVqirz41ANABD8_JTT8-10" value="" style="shape=partialRectangle;collapsible=0;dropTarget=0;pointerEvents=0;fillColor=none;top=0;left=0;bottom=0;right=0;points=[[0,0.5],[1,0.5]];portConstraint=eastwest;" parent="5FVqirz41ANABD8_JTT8-0" vertex="1">
                    <mxGeometry y="120" width="180" height="30" as="geometry"/>
                </mxCell>
                <mxCell id="5FVqirz41ANABD8_JTT8-11" value="" style="shape=partialRectangle;connectable=0;fillColor=none;top=0;left=0;bottom=0;right=0;editable=1;overflow=hidden;" parent="5FVqirz41ANABD8_JTT8-10" vertex="1">
                    <mxGeometry width="30" height="30" as="geometry"/>
                </mxCell>
                <mxCell id="5FVqirz41ANABD8_JTT8-12" value="Username" style="shape=partialRectangle;connectable=0;fillColor=none;top=0;left=0;bottom=0;right=0;align=left;spacingLeft=6;overflow=hidden;" parent="5FVqirz41ANABD8_JTT8-10" vertex="1">
                    <mxGeometry x="30" width="150" height="30" as="geometry"/>
                </mxCell>
                <mxCell id="POMH2nDKkKfMB0n4jwZs-0" value="Listings" style="shape=table;startSize=29;container=1;collapsible=1;childLayout=tableLayout;fixedRows=1;rowLines=0;fontStyle=1;align=center;resizeLast=1;" parent="XprqFiinilp-T4zNDX8G-1" vertex="1">
                    <mxGeometry x="37" y="70" width="241" height="327.99999999999994" as="geometry"/>
                </mxCell>
                <mxCell id="POMH2nDKkKfMB0n4jwZs-1" value="" style="shape=partialRectangle;collapsible=0;dropTarget=0;pointerEvents=0;fillColor=none;top=0;left=0;bottom=1;right=0;points=[[0,0.5],[1,0.5]];portConstraint=eastwest;" parent="POMH2nDKkKfMB0n4jwZs-0" vertex="1">
                    <mxGeometry y="29" width="241" height="30" as="geometry"/>
                </mxCell>
                <mxCell id="POMH2nDKkKfMB0n4jwZs-2" value="PK" style="shape=partialRectangle;connectable=0;fillColor=none;top=0;left=0;bottom=0;right=0;fontStyle=1;overflow=hidden;" parent="POMH2nDKkKfMB0n4jwZs-1" vertex="1">
                    <mxGeometry width="30" height="30" as="geometry">
                        <mxRectangle width="30" height="30" as="alternateBounds"/>
                    </mxGeometry>
                </mxCell>
                <mxCell id="POMH2nDKkKfMB0n4jwZs-3" value="Listing ID" style="shape=partialRectangle;connectable=0;fillColor=none;top=0;left=0;bottom=0;right=0;align=left;spacingLeft=6;fontStyle=5;overflow=hidden;" parent="POMH2nDKkKfMB0n4jwZs-1" vertex="1">
                    <mxGeometry x="30" width="211" height="30" as="geometry">
                        <mxRectangle width="286" height="30" as="alternateBounds"/>
                    </mxGeometry>
                </mxCell>
                <mxCell id="POMH2nDKkKfMB0n4jwZs-4" value="" style="shape=partialRectangle;collapsible=0;dropTarget=0;pointerEvents=0;fillColor=none;top=0;left=0;bottom=0;right=0;points=[[0,0.5],[1,0.5]];portConstraint=eastwest;" parent="POMH2nDKkKfMB0n4jwZs-0" vertex="1">
                    <mxGeometry y="59" width="241" height="29" as="geometry"/>
                </mxCell>
                <mxCell id="POMH2nDKkKfMB0n4jwZs-5" value="" style="shape=partialRectangle;connectable=0;fillColor=none;top=0;left=0;bottom=0;right=0;editable=1;overflow=hidden;" parent="POMH2nDKkKfMB0n4jwZs-4" vertex="1">
                    <mxGeometry width="30" height="29" as="geometry">
                        <mxRectangle width="30" height="29" as="alternateBounds"/>
                    </mxGeometry>
                </mxCell>
                <mxCell id="POMH2nDKkKfMB0n4jwZs-6" value="Car VIN" style="shape=partialRectangle;connectable=0;fillColor=none;top=0;left=0;bottom=0;right=0;align=left;spacingLeft=6;overflow=hidden;" parent="POMH2nDKkKfMB0n4jwZs-4" vertex="1">
                    <mxGeometry x="30" width="211" height="29" as="geometry">
                        <mxRectangle width="286" height="29" as="alternateBounds"/>
                    </mxGeometry>
                </mxCell>
                <mxCell id="POMH2nDKkKfMB0n4jwZs-131" value="" style="shape=partialRectangle;collapsible=0;dropTarget=0;pointerEvents=0;fillColor=none;top=0;left=0;bottom=0;right=0;points=[[0,0.5],[1,0.5]];portConstraint=eastwest;" parent="POMH2nDKkKfMB0n4jwZs-0" vertex="1">
                    <mxGeometry y="88" width="241" height="29" as="geometry"/>
                </mxCell>
                <mxCell id="POMH2nDKkKfMB0n4jwZs-132" value="" style="shape=partialRectangle;connectable=0;fillColor=none;top=0;left=0;bottom=0;right=0;editable=1;overflow=hidden;" parent="POMH2nDKkKfMB0n4jwZs-131" vertex="1">
                    <mxGeometry width="30" height="29" as="geometry">
                        <mxRectangle width="30" height="29" as="alternateBounds"/>
                    </mxGeometry>
                </mxCell>
                <mxCell id="POMH2nDKkKfMB0n4jwZs-133" value="Color" style="shape=partialRectangle;connectable=0;fillColor=none;top=0;left=0;bottom=0;right=0;align=left;spacingLeft=6;overflow=hidden;" parent="POMH2nDKkKfMB0n4jwZs-131" vertex="1">
                    <mxGeometry x="30" width="211" height="29" as="geometry">
                        <mxRectangle width="286" height="29" as="alternateBounds"/>
                    </mxGeometry>
                </mxCell>
                <mxCell id="POMH2nDKkKfMB0n4jwZs-7" value="" style="shape=partialRectangle;collapsible=0;dropTarget=0;pointerEvents=0;fillColor=none;top=0;left=0;bottom=0;right=0;points=[[0,0.5],[1,0.5]];portConstraint=eastwest;" parent="POMH2nDKkKfMB0n4jwZs-0" vertex="1">
                    <mxGeometry y="117" width="241" height="30" as="geometry"/>
                </mxCell>
                <mxCell id="POMH2nDKkKfMB0n4jwZs-8" value="" style="shape=partialRectangle;connectable=0;fillColor=none;top=0;left=0;bottom=0;right=0;editable=1;overflow=hidden;" parent="POMH2nDKkKfMB0n4jwZs-7" vertex="1">
                    <mxGeometry width="30" height="30" as="geometry">
                        <mxRectangle width="30" height="30" as="alternateBounds"/>
                    </mxGeometry>
                </mxCell>
                <mxCell id="POMH2nDKkKfMB0n4jwZs-9" value="Make" style="shape=partialRectangle;connectable=0;fillColor=none;top=0;left=0;bottom=0;right=0;align=left;spacingLeft=6;overflow=hidden;" parent="POMH2nDKkKfMB0n4jwZs-7" vertex="1">
                    <mxGeometry x="30" width="211" height="30" as="geometry">
                        <mxRectangle width="286" height="30" as="alternateBounds"/>
                    </mxGeometry>
                </mxCell>
                <mxCell id="POMH2nDKkKfMB0n4jwZs-10" value="" style="shape=partialRectangle;collapsible=0;dropTarget=0;pointerEvents=0;fillColor=none;top=0;left=0;bottom=0;right=0;points=[[0,0.5],[1,0.5]];portConstraint=eastwest;" parent="POMH2nDKkKfMB0n4jwZs-0" vertex="1">
                    <mxGeometry y="147" width="241" height="30" as="geometry"/>
                </mxCell>
                <mxCell id="POMH2nDKkKfMB0n4jwZs-11" value="" style="shape=partialRectangle;connectable=0;fillColor=none;top=0;left=0;bottom=0;right=0;editable=1;overflow=hidden;" parent="POMH2nDKkKfMB0n4jwZs-10" vertex="1">
                    <mxGeometry width="30" height="30" as="geometry">
                        <mxRectangle width="30" height="30" as="alternateBounds"/>
                    </mxGeometry>
                </mxCell>
                <mxCell id="POMH2nDKkKfMB0n4jwZs-12" value="Model" style="shape=partialRectangle;connectable=0;fillColor=none;top=0;left=0;bottom=0;right=0;align=left;spacingLeft=6;overflow=hidden;" parent="POMH2nDKkKfMB0n4jwZs-10" vertex="1">
                    <mxGeometry x="30" width="211" height="30" as="geometry">
                        <mxRectangle width="286" height="30" as="alternateBounds"/>
                    </mxGeometry>
                </mxCell>
                <mxCell id="POMH2nDKkKfMB0n4jwZs-13" style="shape=partialRectangle;collapsible=0;dropTarget=0;pointerEvents=0;fillColor=none;top=0;left=0;bottom=0;right=0;points=[[0,0.5],[1,0.5]];portConstraint=eastwest;" parent="POMH2nDKkKfMB0n4jwZs-0" vertex="1">
                    <mxGeometry y="177" width="241" height="30" as="geometry"/>
                </mxCell>
                <mxCell id="POMH2nDKkKfMB0n4jwZs-14" style="shape=partialRectangle;connectable=0;fillColor=none;top=0;left=0;bottom=0;right=0;editable=1;overflow=hidden;" parent="POMH2nDKkKfMB0n4jwZs-13" vertex="1">
                    <mxGeometry width="30" height="30" as="geometry">
                        <mxRectangle width="30" height="30" as="alternateBounds"/>
                    </mxGeometry>
                </mxCell>
                <mxCell id="POMH2nDKkKfMB0n4jwZs-15" value="Year" style="shape=partialRectangle;connectable=0;fillColor=none;top=0;left=0;bottom=0;right=0;align=left;spacingLeft=6;overflow=hidden;" parent="POMH2nDKkKfMB0n4jwZs-13" vertex="1">
                    <mxGeometry x="30" width="211" height="30" as="geometry">
                        <mxRectangle width="286" height="30" as="alternateBounds"/>
                    </mxGeometry>
                </mxCell>
                <mxCell id="POMH2nDKkKfMB0n4jwZs-16" value="" style="shape=partialRectangle;collapsible=0;dropTarget=0;pointerEvents=0;fillColor=none;top=0;left=0;bottom=0;right=0;points=[[0,0.5],[1,0.5]];portConstraint=eastwest;" parent="POMH2nDKkKfMB0n4jwZs-0" vertex="1">
                    <mxGeometry y="207" width="241" height="30" as="geometry"/>
                </mxCell>
                <mxCell id="POMH2nDKkKfMB0n4jwZs-17" value="" style="shape=partialRectangle;connectable=0;fillColor=none;top=0;left=0;bottom=0;right=0;editable=1;overflow=hidden;" parent="POMH2nDKkKfMB0n4jwZs-16" vertex="1">
                    <mxGeometry width="30" height="30" as="geometry">
                        <mxRectangle width="30" height="30" as="alternateBounds"/>
                    </mxGeometry>
                </mxCell>
                <mxCell id="POMH2nDKkKfMB0n4jwZs-18" value="Mileage" style="shape=partialRectangle;connectable=0;fillColor=none;top=0;left=0;bottom=0;right=0;align=left;spacingLeft=6;overflow=hidden;" parent="POMH2nDKkKfMB0n4jwZs-16" vertex="1">
                    <mxGeometry x="30" width="211" height="30" as="geometry">
                        <mxRectangle width="286" height="30" as="alternateBounds"/>
                    </mxGeometry>
                </mxCell>
                <mxCell id="POMH2nDKkKfMB0n4jwZs-19" style="shape=partialRectangle;collapsible=0;dropTarget=0;pointerEvents=0;fillColor=none;top=0;left=0;bottom=0;right=0;points=[[0,0.5],[1,0.5]];portConstraint=eastwest;" parent="POMH2nDKkKfMB0n4jwZs-0" vertex="1">
                    <mxGeometry y="237" width="241" height="30" as="geometry"/>
                </mxCell>
                <mxCell id="POMH2nDKkKfMB0n4jwZs-20" style="shape=partialRectangle;connectable=0;fillColor=none;top=0;left=0;bottom=0;right=0;editable=1;overflow=hidden;" parent="POMH2nDKkKfMB0n4jwZs-19" vertex="1">
                    <mxGeometry width="30" height="30" as="geometry">
                        <mxRectangle width="30" height="30" as="alternateBounds"/>
                    </mxGeometry>
                </mxCell>
                <mxCell id="POMH2nDKkKfMB0n4jwZs-21" value="Price" style="shape=partialRectangle;connectable=0;fillColor=none;top=0;left=0;bottom=0;right=0;align=left;spacingLeft=6;overflow=hidden;" parent="POMH2nDKkKfMB0n4jwZs-19" vertex="1">
                    <mxGeometry x="30" width="211" height="30" as="geometry">
                        <mxRectangle width="286" height="30" as="alternateBounds"/>
                    </mxGeometry>
                </mxCell>
                <mxCell id="POMH2nDKkKfMB0n4jwZs-22" value="" style="shape=partialRectangle;collapsible=0;dropTarget=0;pointerEvents=0;fillColor=none;top=0;left=0;bottom=0;right=0;points=[[0,0.5],[1,0.5]];portConstraint=eastwest;" parent="POMH2nDKkKfMB0n4jwZs-0" vertex="1">
                    <mxGeometry y="267" width="241" height="35" as="geometry"/>
                </mxCell>
                <mxCell id="POMH2nDKkKfMB0n4jwZs-23" value="" style="shape=partialRectangle;connectable=0;fillColor=none;top=0;left=0;bottom=0;right=0;editable=1;overflow=hidden;" parent="POMH2nDKkKfMB0n4jwZs-22" vertex="1">
                    <mxGeometry width="30" height="35" as="geometry">
                        <mxRectangle width="30" height="30" as="alternateBounds"/>
                    </mxGeometry>
                </mxCell>
                <mxCell id="POMH2nDKkKfMB0n4jwZs-24" value="Owner" style="shape=partialRectangle;connectable=0;fillColor=none;top=0;left=0;bottom=0;right=0;align=left;spacingLeft=6;overflow=hidden;" parent="POMH2nDKkKfMB0n4jwZs-22" vertex="1">
                    <mxGeometry x="30" width="211" height="35" as="geometry">
                        <mxRectangle width="286" height="30" as="alternateBounds"/>
                    </mxGeometry>
                </mxCell>
                <mxCell id="POMH2nDKkKfMB0n4jwZs-25" value="User Transaction" style="shape=table;startSize=30;container=1;collapsible=1;childLayout=tableLayout;fixedRows=1;rowLines=0;fontStyle=1;align=center;resizeLast=1;" parent="XprqFiinilp-T4zNDX8G-1" vertex="1">
                    <mxGeometry x="400" y="93" width="180" height="210" as="geometry"/>
                </mxCell>
                <mxCell id="POMH2nDKkKfMB0n4jwZs-26" value="" style="shape=partialRectangle;collapsible=0;dropTarget=0;pointerEvents=0;fillColor=none;top=0;left=0;bottom=1;right=0;points=[[0,0.5],[1,0.5]];portConstraint=eastwest;" parent="POMH2nDKkKfMB0n4jwZs-25" vertex="1">
                    <mxGeometry y="30" width="180" height="30" as="geometry"/>
                </mxCell>
                <mxCell id="POMH2nDKkKfMB0n4jwZs-27" value="PK" style="shape=partialRectangle;connectable=0;fillColor=none;top=0;left=0;bottom=0;right=0;fontStyle=1;overflow=hidden;" parent="POMH2nDKkKfMB0n4jwZs-26" vertex="1">
                    <mxGeometry width="30" height="30" as="geometry"/>
                </mxCell>
                <mxCell id="POMH2nDKkKfMB0n4jwZs-28" value="Transaction ID" style="shape=partialRectangle;connectable=0;fillColor=none;top=0;left=0;bottom=0;right=0;align=left;spacingLeft=6;fontStyle=5;overflow=hidden;" parent="POMH2nDKkKfMB0n4jwZs-26" vertex="1">
                    <mxGeometry x="30" width="150" height="30" as="geometry"/>
                </mxCell>
                <mxCell id="POMH2nDKkKfMB0n4jwZs-29" value="" style="shape=partialRectangle;collapsible=0;dropTarget=0;pointerEvents=0;fillColor=none;top=0;left=0;bottom=0;right=0;points=[[0,0.5],[1,0.5]];portConstraint=eastwest;" parent="POMH2nDKkKfMB0n4jwZs-25" vertex="1">
                    <mxGeometry y="60" width="180" height="30" as="geometry"/>
                </mxCell>
                <mxCell id="POMH2nDKkKfMB0n4jwZs-30" value="" style="shape=partialRectangle;connectable=0;fillColor=none;top=0;left=0;bottom=0;right=0;editable=1;overflow=hidden;" parent="POMH2nDKkKfMB0n4jwZs-29" vertex="1">
                    <mxGeometry width="30" height="30" as="geometry"/>
                </mxCell>
                <mxCell id="POMH2nDKkKfMB0n4jwZs-31" value="Transaction Amount" style="shape=partialRectangle;connectable=0;fillColor=none;top=0;left=0;bottom=0;right=0;align=left;spacingLeft=6;overflow=hidden;" parent="POMH2nDKkKfMB0n4jwZs-29" vertex="1">
                    <mxGeometry x="30" width="150" height="30" as="geometry"/>
                </mxCell>
                <mxCell id="POMH2nDKkKfMB0n4jwZs-32" value="" style="shape=partialRectangle;collapsible=0;dropTarget=0;pointerEvents=0;fillColor=none;top=0;left=0;bottom=0;right=0;points=[[0,0.5],[1,0.5]];portConstraint=eastwest;" parent="POMH2nDKkKfMB0n4jwZs-25" vertex="1">
                    <mxGeometry y="90" width="180" height="30" as="geometry"/>
                </mxCell>
                <mxCell id="POMH2nDKkKfMB0n4jwZs-33" value="" style="shape=partialRectangle;connectable=0;fillColor=none;top=0;left=0;bottom=0;right=0;editable=1;overflow=hidden;" parent="POMH2nDKkKfMB0n4jwZs-32" vertex="1">
                    <mxGeometry width="30" height="30" as="geometry"/>
                </mxCell>
                <mxCell id="POMH2nDKkKfMB0n4jwZs-34" value="Transaction Date" style="shape=partialRectangle;connectable=0;fillColor=none;top=0;left=0;bottom=0;right=0;align=left;spacingLeft=6;overflow=hidden;" parent="POMH2nDKkKfMB0n4jwZs-32" vertex="1">
                    <mxGeometry x="30" width="150" height="30" as="geometry"/>
                </mxCell>
                <mxCell id="POMH2nDKkKfMB0n4jwZs-35" value="" style="shape=partialRectangle;collapsible=0;dropTarget=0;pointerEvents=0;fillColor=none;top=0;left=0;bottom=0;right=0;points=[[0,0.5],[1,0.5]];portConstraint=eastwest;" parent="POMH2nDKkKfMB0n4jwZs-25" vertex="1">
                    <mxGeometry y="120" width="180" height="30" as="geometry"/>
                </mxCell>
                <mxCell id="POMH2nDKkKfMB0n4jwZs-36" value="FK" style="shape=partialRectangle;connectable=0;fillColor=none;top=0;left=0;bottom=0;right=0;editable=1;overflow=hidden;" parent="POMH2nDKkKfMB0n4jwZs-35" vertex="1">
                    <mxGeometry width="30" height="30" as="geometry"/>
                </mxCell>
                <mxCell id="POMH2nDKkKfMB0n4jwZs-37" value="Car VIN" style="shape=partialRectangle;connectable=0;fillColor=none;top=0;left=0;bottom=0;right=0;align=left;spacingLeft=6;overflow=hidden;" parent="POMH2nDKkKfMB0n4jwZs-35" vertex="1">
                    <mxGeometry x="30" width="150" height="30" as="geometry"/>
                </mxCell>
                <mxCell id="POMH2nDKkKfMB0n4jwZs-38" value="" style="shape=partialRectangle;collapsible=0;dropTarget=0;pointerEvents=0;fillColor=none;top=0;left=0;bottom=0;right=0;points=[[0,0.5],[1,0.5]];portConstraint=eastwest;" parent="POMH2nDKkKfMB0n4jwZs-25" vertex="1">
                    <mxGeometry y="150" width="180" height="30" as="geometry"/>
                </mxCell>
                <mxCell id="POMH2nDKkKfMB0n4jwZs-39" value="FK" style="shape=partialRectangle;connectable=0;fillColor=none;top=0;left=0;bottom=0;right=0;editable=1;overflow=hidden;" parent="POMH2nDKkKfMB0n4jwZs-38" vertex="1">
                    <mxGeometry width="30" height="30" as="geometry"/>
                </mxCell>
                <mxCell id="POMH2nDKkKfMB0n4jwZs-40" value="Buyer Name" style="shape=partialRectangle;connectable=0;fillColor=none;top=0;left=0;bottom=0;right=0;align=left;spacingLeft=6;overflow=hidden;" parent="POMH2nDKkKfMB0n4jwZs-38" vertex="1">
                    <mxGeometry x="30" width="150" height="30" as="geometry"/>
                </mxCell>
                <mxCell id="POMH2nDKkKfMB0n4jwZs-41" value="" style="shape=partialRectangle;collapsible=0;dropTarget=0;pointerEvents=0;fillColor=none;top=0;left=0;bottom=0;right=0;points=[[0,0.5],[1,0.5]];portConstraint=eastwest;" parent="POMH2nDKkKfMB0n4jwZs-25" vertex="1">
                    <mxGeometry y="180" width="180" height="30" as="geometry"/>
                </mxCell>
                <mxCell id="POMH2nDKkKfMB0n4jwZs-42" value="FK" style="shape=partialRectangle;connectable=0;fillColor=none;top=0;left=0;bottom=0;right=0;editable=1;overflow=hidden;" parent="POMH2nDKkKfMB0n4jwZs-41" vertex="1">
                    <mxGeometry width="30" height="30" as="geometry"/>
                </mxCell>
                <mxCell id="POMH2nDKkKfMB0n4jwZs-43" value="Seller Name" style="shape=partialRectangle;connectable=0;fillColor=none;top=0;left=0;bottom=0;right=0;align=left;spacingLeft=6;overflow=hidden;" parent="POMH2nDKkKfMB0n4jwZs-41" vertex="1">
                    <mxGeometry x="30" width="150" height="30" as="geometry"/>
                </mxCell>
                <mxCell id="POMH2nDKkKfMB0n4jwZs-44" value="Account Listings" style="shape=table;startSize=30;container=1;collapsible=1;childLayout=tableLayout;fixedRows=1;rowLines=0;fontStyle=1;align=center;resizeLast=1;" parent="XprqFiinilp-T4zNDX8G-1" vertex="1">
                    <mxGeometry x="84" y="453" width="241" height="330" as="geometry"/>
                </mxCell>
                <mxCell id="POMH2nDKkKfMB0n4jwZs-45" value="" style="shape=partialRectangle;collapsible=0;dropTarget=0;pointerEvents=0;fillColor=none;top=0;left=0;bottom=1;right=0;points=[[0,0.5],[1,0.5]];portConstraint=eastwest;" parent="POMH2nDKkKfMB0n4jwZs-44" vertex="1">
                    <mxGeometry y="30" width="241" height="30" as="geometry"/>
                </mxCell>
                <mxCell id="POMH2nDKkKfMB0n4jwZs-46" value="PK" style="shape=partialRectangle;connectable=0;fillColor=none;top=0;left=0;bottom=0;right=0;fontStyle=1;overflow=hidden;" parent="POMH2nDKkKfMB0n4jwZs-45" vertex="1">
                    <mxGeometry width="30" height="30" as="geometry">
                        <mxRectangle width="30" height="30" as="alternateBounds"/>
                    </mxGeometry>
                </mxCell>
                <mxCell id="POMH2nDKkKfMB0n4jwZs-47" value="Account Listing ID" style="shape=partialRectangle;connectable=0;fillColor=none;top=0;left=0;bottom=0;right=0;align=left;spacingLeft=6;fontStyle=5;overflow=hidden;" parent="POMH2nDKkKfMB0n4jwZs-45" vertex="1">
                    <mxGeometry x="30" width="211" height="30" as="geometry">
                        <mxRectangle width="286" height="30" as="alternateBounds"/>
                    </mxGeometry>
                </mxCell>
                <mxCell id="POMH2nDKkKfMB0n4jwZs-97" value="" style="shape=partialRectangle;collapsible=0;dropTarget=0;pointerEvents=0;fillColor=none;top=0;left=0;bottom=0;right=0;points=[[0,0.5],[1,0.5]];portConstraint=eastwest;" parent="POMH2nDKkKfMB0n4jwZs-44" vertex="1">
                    <mxGeometry y="60" width="241" height="29" as="geometry"/>
                </mxCell>
                <mxCell id="POMH2nDKkKfMB0n4jwZs-98" value="" style="shape=partialRectangle;connectable=0;fillColor=none;top=0;left=0;bottom=0;right=0;editable=1;overflow=hidden;" parent="POMH2nDKkKfMB0n4jwZs-97" vertex="1">
                    <mxGeometry width="30" height="29" as="geometry">
                        <mxRectangle width="30" height="29" as="alternateBounds"/>
                    </mxGeometry>
                </mxCell>
                <mxCell id="POMH2nDKkKfMB0n4jwZs-99" value="Car VIN ID" style="shape=partialRectangle;connectable=0;fillColor=none;top=0;left=0;bottom=0;right=0;align=left;spacingLeft=6;overflow=hidden;" parent="POMH2nDKkKfMB0n4jwZs-97" vertex="1">
                    <mxGeometry x="30" width="211" height="29" as="geometry">
                        <mxRectangle width="286" height="29" as="alternateBounds"/>
                    </mxGeometry>
                </mxCell>
                <mxCell id="POMH2nDKkKfMB0n4jwZs-48" value="" style="shape=partialRectangle;collapsible=0;dropTarget=0;pointerEvents=0;fillColor=none;top=0;left=0;bottom=0;right=0;points=[[0,0.5],[1,0.5]];portConstraint=eastwest;" parent="POMH2nDKkKfMB0n4jwZs-44" vertex="1">
                    <mxGeometry y="89" width="241" height="29" as="geometry"/>
                </mxCell>
                <mxCell id="POMH2nDKkKfMB0n4jwZs-49" value="" style="shape=partialRectangle;connectable=0;fillColor=none;top=0;left=0;bottom=0;right=0;editable=1;overflow=hidden;" parent="POMH2nDKkKfMB0n4jwZs-48" vertex="1">
                    <mxGeometry width="30" height="29" as="geometry">
                        <mxRectangle width="30" height="29" as="alternateBounds"/>
                    </mxGeometry>
                </mxCell>
                <mxCell id="POMH2nDKkKfMB0n4jwZs-50" value="Color" style="shape=partialRectangle;connectable=0;fillColor=none;top=0;left=0;bottom=0;right=0;align=left;spacingLeft=6;overflow=hidden;" parent="POMH2nDKkKfMB0n4jwZs-48" vertex="1">
                    <mxGeometry x="30" width="211" height="29" as="geometry">
                        <mxRectangle width="286" height="29" as="alternateBounds"/>
                    </mxGeometry>
                </mxCell>
                <mxCell id="POMH2nDKkKfMB0n4jwZs-51" value="" style="shape=partialRectangle;collapsible=0;dropTarget=0;pointerEvents=0;fillColor=none;top=0;left=0;bottom=0;right=0;points=[[0,0.5],[1,0.5]];portConstraint=eastwest;" parent="POMH2nDKkKfMB0n4jwZs-44" vertex="1">
                    <mxGeometry y="118" width="241" height="30" as="geometry"/>
                </mxCell>
                <mxCell id="POMH2nDKkKfMB0n4jwZs-52" value="" style="shape=partialRectangle;connectable=0;fillColor=none;top=0;left=0;bottom=0;right=0;editable=1;overflow=hidden;" parent="POMH2nDKkKfMB0n4jwZs-51" vertex="1">
                    <mxGeometry width="30" height="30" as="geometry">
                        <mxRectangle width="30" height="30" as="alternateBounds"/>
                    </mxGeometry>
                </mxCell>
                <mxCell id="POMH2nDKkKfMB0n4jwZs-53" value="Make" style="shape=partialRectangle;connectable=0;fillColor=none;top=0;left=0;bottom=0;right=0;align=left;spacingLeft=6;overflow=hidden;" parent="POMH2nDKkKfMB0n4jwZs-51" vertex="1">
                    <mxGeometry x="30" width="211" height="30" as="geometry">
                        <mxRectangle width="286" height="30" as="alternateBounds"/>
                    </mxGeometry>
                </mxCell>
                <mxCell id="POMH2nDKkKfMB0n4jwZs-54" value="" style="shape=partialRectangle;collapsible=0;dropTarget=0;pointerEvents=0;fillColor=none;top=0;left=0;bottom=0;right=0;points=[[0,0.5],[1,0.5]];portConstraint=eastwest;" parent="POMH2nDKkKfMB0n4jwZs-44" vertex="1">
                    <mxGeometry y="148" width="241" height="30" as="geometry"/>
                </mxCell>
                <mxCell id="POMH2nDKkKfMB0n4jwZs-55" value="" style="shape=partialRectangle;connectable=0;fillColor=none;top=0;left=0;bottom=0;right=0;editable=1;overflow=hidden;" parent="POMH2nDKkKfMB0n4jwZs-54" vertex="1">
                    <mxGeometry width="30" height="30" as="geometry">
                        <mxRectangle width="30" height="30" as="alternateBounds"/>
                    </mxGeometry>
                </mxCell>
                <mxCell id="POMH2nDKkKfMB0n4jwZs-56" value="Model" style="shape=partialRectangle;connectable=0;fillColor=none;top=0;left=0;bottom=0;right=0;align=left;spacingLeft=6;overflow=hidden;" parent="POMH2nDKkKfMB0n4jwZs-54" vertex="1">
                    <mxGeometry x="30" width="211" height="30" as="geometry">
                        <mxRectangle width="286" height="30" as="alternateBounds"/>
                    </mxGeometry>
                </mxCell>
                <mxCell id="POMH2nDKkKfMB0n4jwZs-57" style="shape=partialRectangle;collapsible=0;dropTarget=0;pointerEvents=0;fillColor=none;top=0;left=0;bottom=0;right=0;points=[[0,0.5],[1,0.5]];portConstraint=eastwest;" parent="POMH2nDKkKfMB0n4jwZs-44" vertex="1">
                    <mxGeometry y="178" width="241" height="30" as="geometry"/>
                </mxCell>
                <mxCell id="POMH2nDKkKfMB0n4jwZs-58" style="shape=partialRectangle;connectable=0;fillColor=none;top=0;left=0;bottom=0;right=0;editable=1;overflow=hidden;" parent="POMH2nDKkKfMB0n4jwZs-57" vertex="1">
                    <mxGeometry width="30" height="30" as="geometry">
                        <mxRectangle width="30" height="30" as="alternateBounds"/>
                    </mxGeometry>
                </mxCell>
                <mxCell id="POMH2nDKkKfMB0n4jwZs-59" value="Year" style="shape=partialRectangle;connectable=0;fillColor=none;top=0;left=0;bottom=0;right=0;align=left;spacingLeft=6;overflow=hidden;" parent="POMH2nDKkKfMB0n4jwZs-57" vertex="1">
                    <mxGeometry x="30" width="211" height="30" as="geometry">
                        <mxRectangle width="286" height="30" as="alternateBounds"/>
                    </mxGeometry>
                </mxCell>
                <mxCell id="POMH2nDKkKfMB0n4jwZs-60" value="" style="shape=partialRectangle;collapsible=0;dropTarget=0;pointerEvents=0;fillColor=none;top=0;left=0;bottom=0;right=0;points=[[0,0.5],[1,0.5]];portConstraint=eastwest;" parent="POMH2nDKkKfMB0n4jwZs-44" vertex="1">
                    <mxGeometry y="208" width="241" height="30" as="geometry"/>
                </mxCell>
                <mxCell id="POMH2nDKkKfMB0n4jwZs-61" value="" style="shape=partialRectangle;connectable=0;fillColor=none;top=0;left=0;bottom=0;right=0;editable=1;overflow=hidden;" parent="POMH2nDKkKfMB0n4jwZs-60" vertex="1">
                    <mxGeometry width="30" height="30" as="geometry">
                        <mxRectangle width="30" height="30" as="alternateBounds"/>
                    </mxGeometry>
                </mxCell>
                <mxCell id="POMH2nDKkKfMB0n4jwZs-62" value="Mileage" style="shape=partialRectangle;connectable=0;fillColor=none;top=0;left=0;bottom=0;right=0;align=left;spacingLeft=6;overflow=hidden;" parent="POMH2nDKkKfMB0n4jwZs-60" vertex="1">
                    <mxGeometry x="30" width="211" height="30" as="geometry">
                        <mxRectangle width="286" height="30" as="alternateBounds"/>
                    </mxGeometry>
                </mxCell>
                <mxCell id="POMH2nDKkKfMB0n4jwZs-63" style="shape=partialRectangle;collapsible=0;dropTarget=0;pointerEvents=0;fillColor=none;top=0;left=0;bottom=0;right=0;points=[[0,0.5],[1,0.5]];portConstraint=eastwest;" parent="POMH2nDKkKfMB0n4jwZs-44" vertex="1">
                    <mxGeometry y="238" width="241" height="30" as="geometry"/>
                </mxCell>
                <mxCell id="POMH2nDKkKfMB0n4jwZs-64" style="shape=partialRectangle;connectable=0;fillColor=none;top=0;left=0;bottom=0;right=0;editable=1;overflow=hidden;" parent="POMH2nDKkKfMB0n4jwZs-63" vertex="1">
                    <mxGeometry width="30" height="30" as="geometry">
                        <mxRectangle width="30" height="30" as="alternateBounds"/>
                    </mxGeometry>
                </mxCell>
                <mxCell id="POMH2nDKkKfMB0n4jwZs-65" value="Price" style="shape=partialRectangle;connectable=0;fillColor=none;top=0;left=0;bottom=0;right=0;align=left;spacingLeft=6;overflow=hidden;" parent="POMH2nDKkKfMB0n4jwZs-63" vertex="1">
                    <mxGeometry x="30" width="211" height="30" as="geometry">
                        <mxRectangle width="286" height="30" as="alternateBounds"/>
                    </mxGeometry>
                </mxCell>
                <mxCell id="POMH2nDKkKfMB0n4jwZs-66" style="shape=partialRectangle;collapsible=0;dropTarget=0;pointerEvents=0;fillColor=none;top=0;left=0;bottom=0;right=0;points=[[0,0.5],[1,0.5]];portConstraint=eastwest;" parent="POMH2nDKkKfMB0n4jwZs-44" vertex="1">
                    <mxGeometry y="268" width="241" height="30" as="geometry"/>
                </mxCell>
                <mxCell id="POMH2nDKkKfMB0n4jwZs-67" style="shape=partialRectangle;connectable=0;fillColor=none;top=0;left=0;bottom=0;right=0;editable=1;overflow=hidden;" parent="POMH2nDKkKfMB0n4jwZs-66" vertex="1">
                    <mxGeometry width="30" height="30" as="geometry">
                        <mxRectangle width="30" height="30" as="alternateBounds"/>
                    </mxGeometry>
                </mxCell>
                <mxCell id="POMH2nDKkKfMB0n4jwZs-68" value="Vehicle Details (Need to Expand)" style="shape=partialRectangle;connectable=0;fillColor=none;top=0;left=0;bottom=0;right=0;align=left;spacingLeft=6;overflow=hidden;" parent="POMH2nDKkKfMB0n4jwZs-66" vertex="1">
                    <mxGeometry x="30" width="211" height="30" as="geometry">
                        <mxRectangle width="286" height="30" as="alternateBounds"/>
                    </mxGeometry>
                </mxCell>
                <mxCell id="POMH2nDKkKfMB0n4jwZs-69" value="" style="shape=partialRectangle;collapsible=0;dropTarget=0;pointerEvents=0;fillColor=none;top=0;left=0;bottom=0;right=0;points=[[0,0.5],[1,0.5]];portConstraint=eastwest;" parent="POMH2nDKkKfMB0n4jwZs-44" vertex="1">
                    <mxGeometry y="298" width="241" height="30" as="geometry"/>
                </mxCell>
                <mxCell id="POMH2nDKkKfMB0n4jwZs-70" value="" style="shape=partialRectangle;connectable=0;fillColor=none;top=0;left=0;bottom=0;right=0;editable=1;overflow=hidden;" parent="POMH2nDKkKfMB0n4jwZs-69" vertex="1">
                    <mxGeometry width="30" height="30" as="geometry">
                        <mxRectangle width="30" height="30" as="alternateBounds"/>
                    </mxGeometry>
                </mxCell>
                <mxCell id="POMH2nDKkKfMB0n4jwZs-71" value="(Transactions)" style="shape=partialRectangle;connectable=0;fillColor=none;top=0;left=0;bottom=0;right=0;align=left;spacingLeft=6;overflow=hidden;" parent="POMH2nDKkKfMB0n4jwZs-69" vertex="1">
                    <mxGeometry x="30" width="211" height="30" as="geometry">
                        <mxRectangle width="286" height="30" as="alternateBounds"/>
                    </mxGeometry>
                </mxCell>
                <mxCell id="POMH2nDKkKfMB0n4jwZs-72" value="Individual Listing" style="shape=table;startSize=30;container=1;collapsible=1;childLayout=tableLayout;fixedRows=1;rowLines=0;fontStyle=1;align=center;resizeLast=1;" parent="XprqFiinilp-T4zNDX8G-1" vertex="1">
                    <mxGeometry x="504" y="456" width="180" height="154.66666666666663" as="geometry"/>
                </mxCell>
                <mxCell id="POMH2nDKkKfMB0n4jwZs-73" value="" style="shape=partialRectangle;collapsible=0;dropTarget=0;pointerEvents=0;fillColor=none;top=0;left=0;bottom=1;right=0;points=[[0,0.5],[1,0.5]];portConstraint=eastwest;" parent="POMH2nDKkKfMB0n4jwZs-72" vertex="1">
                    <mxGeometry y="30" width="180" height="30" as="geometry"/>
                </mxCell>
                <mxCell id="POMH2nDKkKfMB0n4jwZs-74" value="PK" style="shape=partialRectangle;connectable=0;fillColor=none;top=0;left=0;bottom=0;right=0;fontStyle=1;overflow=hidden;" parent="POMH2nDKkKfMB0n4jwZs-73" vertex="1">
                    <mxGeometry width="30" height="30" as="geometry"/>
                </mxCell>
                <mxCell id="POMH2nDKkKfMB0n4jwZs-75" value="Individual Listing ID" style="shape=partialRectangle;connectable=0;fillColor=none;top=0;left=0;bottom=0;right=0;align=left;spacingLeft=6;fontStyle=5;overflow=hidden;" parent="POMH2nDKkKfMB0n4jwZs-73" vertex="1">
                    <mxGeometry x="30" width="150" height="30" as="geometry"/>
                </mxCell>
                <mxCell id="POMH2nDKkKfMB0n4jwZs-88" value="" style="shape=partialRectangle;collapsible=0;dropTarget=0;pointerEvents=0;fillColor=none;top=0;left=0;bottom=0;right=0;points=[[0,0.5],[1,0.5]];portConstraint=eastwest;" parent="POMH2nDKkKfMB0n4jwZs-72" vertex="1">
                    <mxGeometry y="60" width="180" height="30" as="geometry"/>
                </mxCell>
                <mxCell id="POMH2nDKkKfMB0n4jwZs-89" value="" style="shape=partialRectangle;connectable=0;fillColor=none;top=0;left=0;bottom=0;right=0;editable=1;overflow=hidden;" parent="POMH2nDKkKfMB0n4jwZs-88" vertex="1">
                    <mxGeometry width="30" height="30" as="geometry"/>
                </mxCell>
                <mxCell id="POMH2nDKkKfMB0n4jwZs-90" value="Seller Name" style="shape=partialRectangle;connectable=0;fillColor=none;top=0;left=0;bottom=0;right=0;align=left;spacingLeft=6;overflow=hidden;" parent="POMH2nDKkKfMB0n4jwZs-88" vertex="1">
                    <mxGeometry x="30" width="150" height="30" as="geometry"/>
                </mxCell>
                <mxCell id="POMH2nDKkKfMB0n4jwZs-134" value="" style="shape=partialRectangle;collapsible=0;dropTarget=0;pointerEvents=0;fillColor=none;top=0;left=0;bottom=0;right=0;points=[[0,0.5],[1,0.5]];portConstraint=eastwest;" parent="POMH2nDKkKfMB0n4jwZs-72" vertex="1">
                    <mxGeometry y="90" width="180" height="25" as="geometry"/>
                </mxCell>
                <mxCell id="POMH2nDKkKfMB0n4jwZs-135" value="" style="shape=partialRectangle;connectable=0;fillColor=none;top=0;left=0;bottom=0;right=0;editable=1;overflow=hidden;" parent="POMH2nDKkKfMB0n4jwZs-134" vertex="1">
                    <mxGeometry width="30" height="25" as="geometry"/>
                </mxCell>
                <mxCell id="POMH2nDKkKfMB0n4jwZs-136" value="Posting Date" style="shape=partialRectangle;connectable=0;fillColor=none;top=0;left=0;bottom=0;right=0;align=left;spacingLeft=6;overflow=hidden;" parent="POMH2nDKkKfMB0n4jwZs-134" vertex="1">
                    <mxGeometry x="30" width="150" height="25" as="geometry"/>
                </mxCell>
                <mxCell id="POMH2nDKkKfMB0n4jwZs-94" value="" style="shape=partialRectangle;collapsible=0;dropTarget=0;pointerEvents=0;fillColor=none;top=0;left=0;bottom=0;right=0;points=[[0,0.5],[1,0.5]];portConstraint=eastwest;" parent="POMH2nDKkKfMB0n4jwZs-72" vertex="1">
                    <mxGeometry y="115" width="180" height="30" as="geometry"/>
                </mxCell>
                <mxCell id="POMH2nDKkKfMB0n4jwZs-95" value="FK" style="shape=partialRectangle;connectable=0;fillColor=none;top=0;left=0;bottom=0;right=0;editable=1;overflow=hidden;" parent="POMH2nDKkKfMB0n4jwZs-94" vertex="1">
                    <mxGeometry width="30" height="30" as="geometry"/>
                </mxCell>
                <mxCell id="POMH2nDKkKfMB0n4jwZs-96" value="Car ID" style="shape=partialRectangle;connectable=0;fillColor=none;top=0;left=0;bottom=0;right=0;align=left;spacingLeft=6;overflow=hidden;" parent="POMH2nDKkKfMB0n4jwZs-94" vertex="1">
                    <mxGeometry x="30" width="150" height="30" as="geometry"/>
                </mxCell>
                <mxCell id="POMH2nDKkKfMB0n4jwZs-137" value="Car" style="shape=table;startSize=30;container=1;collapsible=1;childLayout=tableLayout;fixedRows=1;rowLines=0;fontStyle=1;align=center;resizeLast=1;fillColor=#2a2a2a;" parent="XprqFiinilp-T4zNDX8G-1" vertex="1">
                    <mxGeometry x="991" y="430" width="180" height="307" as="geometry"/>
                </mxCell>
                <mxCell id="POMH2nDKkKfMB0n4jwZs-138" value="" style="shape=partialRectangle;collapsible=0;dropTarget=0;pointerEvents=0;fillColor=none;top=0;left=0;bottom=1;right=0;points=[[0,0.5],[1,0.5]];portConstraint=eastwest;" parent="POMH2nDKkKfMB0n4jwZs-137" vertex="1">
                    <mxGeometry y="30" width="180" height="30" as="geometry"/>
                </mxCell>
                <mxCell id="POMH2nDKkKfMB0n4jwZs-139" value="PK" style="shape=partialRectangle;connectable=0;fillColor=none;top=0;left=0;bottom=0;right=0;fontStyle=1;overflow=hidden;" parent="POMH2nDKkKfMB0n4jwZs-138" vertex="1">
                    <mxGeometry width="30" height="30" as="geometry"/>
                </mxCell>
                <mxCell id="POMH2nDKkKfMB0n4jwZs-140" value="Car VIN" style="shape=partialRectangle;connectable=0;fillColor=none;top=0;left=0;bottom=0;right=0;align=left;spacingLeft=6;fontStyle=5;overflow=hidden;" parent="POMH2nDKkKfMB0n4jwZs-138" vertex="1">
                    <mxGeometry x="30" width="150" height="30" as="geometry"/>
                </mxCell>
                <mxCell id="POMH2nDKkKfMB0n4jwZs-141" value="" style="shape=partialRectangle;collapsible=0;dropTarget=0;pointerEvents=0;fillColor=none;top=0;left=0;bottom=0;right=0;points=[[0,0.5],[1,0.5]];portConstraint=eastwest;" parent="POMH2nDKkKfMB0n4jwZs-137" vertex="1">
                    <mxGeometry y="60" width="180" height="30" as="geometry"/>
                </mxCell>
                <mxCell id="POMH2nDKkKfMB0n4jwZs-142" value="" style="shape=partialRectangle;connectable=0;fillColor=none;top=0;left=0;bottom=0;right=0;editable=1;overflow=hidden;" parent="POMH2nDKkKfMB0n4jwZs-141" vertex="1">
                    <mxGeometry width="30" height="30" as="geometry"/>
                </mxCell>
                <mxCell id="POMH2nDKkKfMB0n4jwZs-143" value="Make" style="shape=partialRectangle;connectable=0;fillColor=none;top=0;left=0;bottom=0;right=0;align=left;spacingLeft=6;overflow=hidden;" parent="POMH2nDKkKfMB0n4jwZs-141" vertex="1">
                    <mxGeometry x="30" width="150" height="30" as="geometry"/>
                </mxCell>
                <mxCell id="POMH2nDKkKfMB0n4jwZs-144" value="" style="shape=partialRectangle;collapsible=0;dropTarget=0;pointerEvents=0;fillColor=none;top=0;left=0;bottom=0;right=0;points=[[0,0.5],[1,0.5]];portConstraint=eastwest;" parent="POMH2nDKkKfMB0n4jwZs-137" vertex="1">
                    <mxGeometry y="90" width="180" height="30" as="geometry"/>
                </mxCell>
                <mxCell id="POMH2nDKkKfMB0n4jwZs-145" value="" style="shape=partialRectangle;connectable=0;fillColor=none;top=0;left=0;bottom=0;right=0;editable=1;overflow=hidden;" parent="POMH2nDKkKfMB0n4jwZs-144" vertex="1">
                    <mxGeometry width="30" height="30" as="geometry"/>
                </mxCell>
                <mxCell id="POMH2nDKkKfMB0n4jwZs-146" value="Model" style="shape=partialRectangle;connectable=0;fillColor=none;top=0;left=0;bottom=0;right=0;align=left;spacingLeft=6;overflow=hidden;" parent="POMH2nDKkKfMB0n4jwZs-144" vertex="1">
                    <mxGeometry x="30" width="150" height="30" as="geometry"/>
                </mxCell>
                <mxCell id="POMH2nDKkKfMB0n4jwZs-151" value="" style="shape=partialRectangle;collapsible=0;dropTarget=0;pointerEvents=0;fillColor=none;top=0;left=0;bottom=0;right=0;points=[[0,0.5],[1,0.5]];portConstraint=eastwest;" parent="POMH2nDKkKfMB0n4jwZs-137" vertex="1">
                    <mxGeometry y="120" width="180" height="30" as="geometry"/>
                </mxCell>
                <mxCell id="POMH2nDKkKfMB0n4jwZs-152" value="" style="shape=partialRectangle;connectable=0;fillColor=none;top=0;left=0;bottom=0;right=0;editable=1;overflow=hidden;" parent="POMH2nDKkKfMB0n4jwZs-151" vertex="1">
                    <mxGeometry width="30" height="30" as="geometry"/>
                </mxCell>
                <mxCell id="POMH2nDKkKfMB0n4jwZs-153" value="Year" style="shape=partialRectangle;connectable=0;fillColor=none;top=0;left=0;bottom=0;right=0;align=left;spacingLeft=6;overflow=hidden;" parent="POMH2nDKkKfMB0n4jwZs-151" vertex="1">
                    <mxGeometry x="30" width="150" height="30" as="geometry"/>
                </mxCell>
                <mxCell id="POMH2nDKkKfMB0n4jwZs-154" value="" style="shape=partialRectangle;collapsible=0;dropTarget=0;pointerEvents=0;fillColor=none;top=0;left=0;bottom=0;right=0;points=[[0,0.5],[1,0.5]];portConstraint=eastwest;" parent="POMH2nDKkKfMB0n4jwZs-137" vertex="1">
                    <mxGeometry y="150" width="180" height="30" as="geometry"/>
                </mxCell>
                <mxCell id="POMH2nDKkKfMB0n4jwZs-155" value="" style="shape=partialRectangle;connectable=0;fillColor=none;top=0;left=0;bottom=0;right=0;editable=1;overflow=hidden;" parent="POMH2nDKkKfMB0n4jwZs-154" vertex="1">
                    <mxGeometry width="30" height="30" as="geometry"/>
                </mxCell>
                <mxCell id="POMH2nDKkKfMB0n4jwZs-156" value="Mileage" style="shape=partialRectangle;connectable=0;fillColor=none;top=0;left=0;bottom=0;right=0;align=left;spacingLeft=6;overflow=hidden;" parent="POMH2nDKkKfMB0n4jwZs-154" vertex="1">
                    <mxGeometry x="30" width="150" height="30" as="geometry"/>
                </mxCell>
                <mxCell id="POMH2nDKkKfMB0n4jwZs-157" value="" style="shape=partialRectangle;collapsible=0;dropTarget=0;pointerEvents=0;fillColor=none;top=0;left=0;bottom=0;right=0;points=[[0,0.5],[1,0.5]];portConstraint=eastwest;" parent="POMH2nDKkKfMB0n4jwZs-137" vertex="1">
                    <mxGeometry y="180" width="180" height="30" as="geometry"/>
                </mxCell>
                <mxCell id="POMH2nDKkKfMB0n4jwZs-158" value="" style="shape=partialRectangle;connectable=0;fillColor=none;top=0;left=0;bottom=0;right=0;editable=1;overflow=hidden;" parent="POMH2nDKkKfMB0n4jwZs-157" vertex="1">
                    <mxGeometry width="30" height="30" as="geometry"/>
                </mxCell>
                <mxCell id="POMH2nDKkKfMB0n4jwZs-159" value="Drivetrain" style="shape=partialRectangle;connectable=0;fillColor=none;top=0;left=0;bottom=0;right=0;align=left;spacingLeft=6;overflow=hidden;" parent="POMH2nDKkKfMB0n4jwZs-157" vertex="1">
                    <mxGeometry x="30" width="150" height="30" as="geometry"/>
                </mxCell>
                <mxCell id="POMH2nDKkKfMB0n4jwZs-160" value="" style="shape=partialRectangle;collapsible=0;dropTarget=0;pointerEvents=0;fillColor=none;top=0;left=0;bottom=0;right=0;points=[[0,0.5],[1,0.5]];portConstraint=eastwest;" parent="POMH2nDKkKfMB0n4jwZs-137" vertex="1">
                    <mxGeometry y="210" width="180" height="30" as="geometry"/>
                </mxCell>
                <mxCell id="POMH2nDKkKfMB0n4jwZs-161" value="" style="shape=partialRectangle;connectable=0;fillColor=none;top=0;left=0;bottom=0;right=0;editable=1;overflow=hidden;" parent="POMH2nDKkKfMB0n4jwZs-160" vertex="1">
                    <mxGeometry width="30" height="30" as="geometry"/>
                </mxCell>
                <mxCell id="POMH2nDKkKfMB0n4jwZs-162" value="Transmission" style="shape=partialRectangle;connectable=0;fillColor=none;top=0;left=0;bottom=0;right=0;align=left;spacingLeft=6;overflow=hidden;" parent="POMH2nDKkKfMB0n4jwZs-160" vertex="1">
                    <mxGeometry x="30" width="150" height="30" as="geometry"/>
                </mxCell>
                <mxCell id="H6bQ-uPBd2Bpmc8nPpSw-0" style="shape=partialRectangle;collapsible=0;dropTarget=0;pointerEvents=0;fillColor=none;top=0;left=0;bottom=0;right=0;points=[[0,0.5],[1,0.5]];portConstraint=eastwest;" parent="POMH2nDKkKfMB0n4jwZs-137" vertex="1">
                    <mxGeometry y="240" width="180" height="30" as="geometry"/>
                </mxCell>
                <mxCell id="H6bQ-uPBd2Bpmc8nPpSw-1" style="shape=partialRectangle;connectable=0;fillColor=none;top=0;left=0;bottom=0;right=0;editable=1;overflow=hidden;" parent="H6bQ-uPBd2Bpmc8nPpSw-0" vertex="1">
                    <mxGeometry width="30" height="30" as="geometry"/>
                </mxCell>
                <mxCell id="H6bQ-uPBd2Bpmc8nPpSw-2" value="Car Type" style="shape=partialRectangle;connectable=0;fillColor=none;top=0;left=0;bottom=0;right=0;align=left;spacingLeft=6;overflow=hidden;" parent="H6bQ-uPBd2Bpmc8nPpSw-0" vertex="1">
                    <mxGeometry x="30" width="150" height="30" as="geometry"/>
                </mxCell>
                <mxCell id="POMH2nDKkKfMB0n4jwZs-163" value="" style="shape=partialRectangle;collapsible=0;dropTarget=0;pointerEvents=0;fillColor=none;top=0;left=0;bottom=0;right=0;points=[[0,0.5],[1,0.5]];portConstraint=eastwest;" parent="POMH2nDKkKfMB0n4jwZs-137" vertex="1">
                    <mxGeometry y="270" width="180" height="30" as="geometry"/>
                </mxCell>
                <mxCell id="POMH2nDKkKfMB0n4jwZs-164" value="" style="shape=partialRectangle;connectable=0;fillColor=none;top=0;left=0;bottom=0;right=0;editable=1;overflow=hidden;" parent="POMH2nDKkKfMB0n4jwZs-163" vertex="1">
                    <mxGeometry width="30" height="30" as="geometry"/>
                </mxCell>
                <mxCell id="POMH2nDKkKfMB0n4jwZs-165" value="Color" style="shape=partialRectangle;connectable=0;fillColor=none;top=0;left=0;bottom=0;right=0;align=left;spacingLeft=6;overflow=hidden;" parent="POMH2nDKkKfMB0n4jwZs-163" vertex="1">
                    <mxGeometry x="30" width="150" height="30" as="geometry"/>
                </mxCell>
                <mxCell id="q9fW0TskkadhBEuBwvXI-0" value="Transactions" style="shape=table;startSize=30;container=1;collapsible=1;childLayout=tableLayout;fixedRows=1;rowLines=0;fontStyle=1;align=center;resizeLast=1;" parent="XprqFiinilp-T4zNDX8G-1" vertex="1">
                    <mxGeometry x="944" y="56" width="180" height="220" as="geometry"/>
                </mxCell>
                <mxCell id="q9fW0TskkadhBEuBwvXI-1" value="" style="shape=partialRectangle;collapsible=0;dropTarget=0;pointerEvents=0;fillColor=none;top=0;left=0;bottom=1;right=0;points=[[0,0.5],[1,0.5]];portConstraint=eastwest;" parent="q9fW0TskkadhBEuBwvXI-0" vertex="1">
                    <mxGeometry y="30" width="180" height="30" as="geometry"/>
                </mxCell>
                <mxCell id="q9fW0TskkadhBEuBwvXI-2" value="PK" style="shape=partialRectangle;connectable=0;fillColor=none;top=0;left=0;bottom=0;right=0;fontStyle=1;overflow=hidden;" parent="q9fW0TskkadhBEuBwvXI-1" vertex="1">
                    <mxGeometry width="30" height="30" as="geometry"/>
                </mxCell>
                <mxCell id="q9fW0TskkadhBEuBwvXI-3" value="Transaction ID" style="shape=partialRectangle;connectable=0;fillColor=none;top=0;left=0;bottom=0;right=0;align=left;spacingLeft=6;fontStyle=5;overflow=hidden;" parent="q9fW0TskkadhBEuBwvXI-1" vertex="1">
                    <mxGeometry x="30" width="150" height="30" as="geometry"/>
                </mxCell>
                <mxCell id="q9fW0TskkadhBEuBwvXI-4" value="" style="shape=partialRectangle;collapsible=0;dropTarget=0;pointerEvents=0;fillColor=none;top=0;left=0;bottom=0;right=0;points=[[0,0.5],[1,0.5]];portConstraint=eastwest;" parent="q9fW0TskkadhBEuBwvXI-0" vertex="1">
                    <mxGeometry y="60" width="180" height="30" as="geometry"/>
                </mxCell>
                <mxCell id="q9fW0TskkadhBEuBwvXI-5" value="" style="shape=partialRectangle;connectable=0;fillColor=none;top=0;left=0;bottom=0;right=0;editable=1;overflow=hidden;" parent="q9fW0TskkadhBEuBwvXI-4" vertex="1">
                    <mxGeometry width="30" height="30" as="geometry"/>
                </mxCell>
                <mxCell id="q9fW0TskkadhBEuBwvXI-6" value="Amount" style="shape=partialRectangle;connectable=0;fillColor=none;top=0;left=0;bottom=0;right=0;align=left;spacingLeft=6;overflow=hidden;" parent="q9fW0TskkadhBEuBwvXI-4" vertex="1">
                    <mxGeometry x="30" width="150" height="30" as="geometry"/>
                </mxCell>
                <mxCell id="q9fW0TskkadhBEuBwvXI-7" value="" style="shape=partialRectangle;collapsible=0;dropTarget=0;pointerEvents=0;fillColor=none;top=0;left=0;bottom=0;right=0;points=[[0,0.5],[1,0.5]];portConstraint=eastwest;" parent="q9fW0TskkadhBEuBwvXI-0" vertex="1">
                    <mxGeometry y="90" width="180" height="30" as="geometry"/>
                </mxCell>
                <mxCell id="q9fW0TskkadhBEuBwvXI-8" value="" style="shape=partialRectangle;connectable=0;fillColor=none;top=0;left=0;bottom=0;right=0;editable=1;overflow=hidden;" parent="q9fW0TskkadhBEuBwvXI-7" vertex="1">
                    <mxGeometry width="30" height="30" as="geometry"/>
                </mxCell>
                <mxCell id="q9fW0TskkadhBEuBwvXI-9" value="Date" style="shape=partialRectangle;connectable=0;fillColor=none;top=0;left=0;bottom=0;right=0;align=left;spacingLeft=6;overflow=hidden;" parent="q9fW0TskkadhBEuBwvXI-7" vertex="1">
                    <mxGeometry x="30" width="150" height="30" as="geometry"/>
                </mxCell>
                <mxCell id="q9fW0TskkadhBEuBwvXI-10" value="" style="shape=partialRectangle;collapsible=0;dropTarget=0;pointerEvents=0;fillColor=none;top=0;left=0;bottom=0;right=0;points=[[0,0.5],[1,0.5]];portConstraint=eastwest;" parent="q9fW0TskkadhBEuBwvXI-0" vertex="1">
                    <mxGeometry y="120" width="180" height="30" as="geometry"/>
                </mxCell>
                <mxCell id="q9fW0TskkadhBEuBwvXI-11" value="FK" style="shape=partialRectangle;connectable=0;fillColor=none;top=0;left=0;bottom=0;right=0;editable=1;overflow=hidden;" parent="q9fW0TskkadhBEuBwvXI-10" vertex="1">
                    <mxGeometry width="30" height="30" as="geometry"/>
                </mxCell>
                <mxCell id="q9fW0TskkadhBEuBwvXI-12" value="Car VIN" style="shape=partialRectangle;connectable=0;fillColor=none;top=0;left=0;bottom=0;right=0;align=left;spacingLeft=6;overflow=hidden;" parent="q9fW0TskkadhBEuBwvXI-10" vertex="1">
                    <mxGeometry x="30" width="150" height="30" as="geometry"/>
                </mxCell>
                <mxCell id="q9fW0TskkadhBEuBwvXI-16" style="shape=partialRectangle;collapsible=0;dropTarget=0;pointerEvents=0;fillColor=none;top=0;left=0;bottom=0;right=0;points=[[0,0.5],[1,0.5]];portConstraint=eastwest;" parent="q9fW0TskkadhBEuBwvXI-0" vertex="1">
                    <mxGeometry y="150" width="180" height="30" as="geometry"/>
                </mxCell>
                <mxCell id="q9fW0TskkadhBEuBwvXI-17" value="FK" style="shape=partialRectangle;connectable=0;fillColor=none;top=0;left=0;bottom=0;right=0;editable=1;overflow=hidden;" parent="q9fW0TskkadhBEuBwvXI-16" vertex="1">
                    <mxGeometry width="30" height="30" as="geometry"/>
                </mxCell>
                <mxCell id="q9fW0TskkadhBEuBwvXI-18" value="Buyer ID" style="shape=partialRectangle;connectable=0;fillColor=none;top=0;left=0;bottom=0;right=0;align=left;spacingLeft=6;overflow=hidden;" parent="q9fW0TskkadhBEuBwvXI-16" vertex="1">
                    <mxGeometry x="30" width="150" height="30" as="geometry"/>
                </mxCell>
                <mxCell id="q9fW0TskkadhBEuBwvXI-13" style="shape=partialRectangle;collapsible=0;dropTarget=0;pointerEvents=0;fillColor=none;top=0;left=0;bottom=0;right=0;points=[[0,0.5],[1,0.5]];portConstraint=eastwest;" parent="q9fW0TskkadhBEuBwvXI-0" vertex="1">
                    <mxGeometry y="180" width="180" height="30" as="geometry"/>
                </mxCell>
                <mxCell id="q9fW0TskkadhBEuBwvXI-14" value="FK" style="shape=partialRectangle;connectable=0;fillColor=none;top=0;left=0;bottom=0;right=0;editable=1;overflow=hidden;" parent="q9fW0TskkadhBEuBwvXI-13" vertex="1">
                    <mxGeometry width="30" height="30" as="geometry"/>
                </mxCell>
                <mxCell id="q9fW0TskkadhBEuBwvXI-15" value="Seller ID" style="shape=partialRectangle;connectable=0;fillColor=none;top=0;left=0;bottom=0;right=0;align=left;spacingLeft=6;overflow=hidden;" parent="q9fW0TskkadhBEuBwvXI-13" vertex="1">
                    <mxGeometry x="30" width="150" height="30" as="geometry"/>
                </mxCell>
                <mxCell id="q9fW0TskkadhBEuBwvXI-19" value="Listings" style="shape=table;startSize=30;container=1;collapsible=1;childLayout=tableLayout;fixedRows=1;rowLines=0;fontStyle=1;align=center;resizeLast=1;" parent="XprqFiinilp-T4zNDX8G-1" vertex="1">
                    <mxGeometry x="1295" y="510" width="180" height="190" as="geometry"/>
                </mxCell>
                <mxCell id="q9fW0TskkadhBEuBwvXI-20" value="" style="shape=partialRectangle;collapsible=0;dropTarget=0;pointerEvents=0;fillColor=none;top=0;left=0;bottom=1;right=0;points=[[0,0.5],[1,0.5]];portConstraint=eastwest;" parent="q9fW0TskkadhBEuBwvXI-19" vertex="1">
                    <mxGeometry y="30" width="180" height="30" as="geometry"/>
                </mxCell>
                <mxCell id="q9fW0TskkadhBEuBwvXI-21" value="PK" style="shape=partialRectangle;connectable=0;fillColor=none;top=0;left=0;bottom=0;right=0;fontStyle=1;overflow=hidden;" parent="q9fW0TskkadhBEuBwvXI-20" vertex="1">
                    <mxGeometry width="30" height="30" as="geometry"/>
                </mxCell>
                <mxCell id="q9fW0TskkadhBEuBwvXI-22" value="Listing ID" style="shape=partialRectangle;connectable=0;fillColor=none;top=0;left=0;bottom=0;right=0;align=left;spacingLeft=6;fontStyle=5;overflow=hidden;" parent="q9fW0TskkadhBEuBwvXI-20" vertex="1">
                    <mxGeometry x="30" width="150" height="30" as="geometry"/>
                </mxCell>
                <mxCell id="q9fW0TskkadhBEuBwvXI-23" value="" style="shape=partialRectangle;collapsible=0;dropTarget=0;pointerEvents=0;fillColor=none;top=0;left=0;bottom=0;right=0;points=[[0,0.5],[1,0.5]];portConstraint=eastwest;" parent="q9fW0TskkadhBEuBwvXI-19" vertex="1">
                    <mxGeometry y="60" width="180" height="30" as="geometry"/>
                </mxCell>
                <mxCell id="q9fW0TskkadhBEuBwvXI-24" value="FK" style="shape=partialRectangle;connectable=0;fillColor=none;top=0;left=0;bottom=0;right=0;editable=1;overflow=hidden;" parent="q9fW0TskkadhBEuBwvXI-23" vertex="1">
                    <mxGeometry width="30" height="30" as="geometry"/>
                </mxCell>
                <mxCell id="q9fW0TskkadhBEuBwvXI-25" value="Car VIN" style="shape=partialRectangle;connectable=0;fillColor=none;top=0;left=0;bottom=0;right=0;align=left;spacingLeft=6;overflow=hidden;" parent="q9fW0TskkadhBEuBwvXI-23" vertex="1">
                    <mxGeometry x="30" width="150" height="30" as="geometry"/>
                </mxCell>
                <mxCell id="q9fW0TskkadhBEuBwvXI-26" value="" style="shape=partialRectangle;collapsible=0;dropTarget=0;pointerEvents=0;fillColor=none;top=0;left=0;bottom=0;right=0;points=[[0,0.5],[1,0.5]];portConstraint=eastwest;" parent="q9fW0TskkadhBEuBwvXI-19" vertex="1">
                    <mxGeometry y="90" width="180" height="30" as="geometry"/>
                </mxCell>
                <mxCell id="q9fW0TskkadhBEuBwvXI-27" value="" style="shape=partialRectangle;connectable=0;fillColor=none;top=0;left=0;bottom=0;right=0;editable=1;overflow=hidden;" parent="q9fW0TskkadhBEuBwvXI-26" vertex="1">
                    <mxGeometry width="30" height="30" as="geometry"/>
                </mxCell>
                <mxCell id="q9fW0TskkadhBEuBwvXI-28" value="Price" style="shape=partialRectangle;connectable=0;fillColor=none;top=0;left=0;bottom=0;right=0;align=left;spacingLeft=6;overflow=hidden;" parent="q9fW0TskkadhBEuBwvXI-26" vertex="1">
                    <mxGeometry x="30" width="150" height="30" as="geometry"/>
                </mxCell>
                <mxCell id="ZtkV-l7zGVauRq_Ou3GW-0" style="shape=partialRectangle;collapsible=0;dropTarget=0;pointerEvents=0;fillColor=none;top=0;left=0;bottom=0;right=0;points=[[0,0.5],[1,0.5]];portConstraint=eastwest;" parent="q9fW0TskkadhBEuBwvXI-19" vertex="1">
                    <mxGeometry y="120" width="180" height="30" as="geometry"/>
                </mxCell>
                <mxCell id="ZtkV-l7zGVauRq_Ou3GW-1" style="shape=partialRectangle;connectable=0;fillColor=none;top=0;left=0;bottom=0;right=0;editable=1;overflow=hidden;" parent="ZtkV-l7zGVauRq_Ou3GW-0" vertex="1">
                    <mxGeometry width="30" height="30" as="geometry"/>
                </mxCell>
                <mxCell id="ZtkV-l7zGVauRq_Ou3GW-2" value="Listing Date" style="shape=partialRectangle;connectable=0;fillColor=none;top=0;left=0;bottom=0;right=0;align=left;spacingLeft=6;overflow=hidden;" parent="ZtkV-l7zGVauRq_Ou3GW-0" vertex="1">
                    <mxGeometry x="30" width="150" height="30" as="geometry"/>
                </mxCell>
                <mxCell id="q9fW0TskkadhBEuBwvXI-29" value="" style="shape=partialRectangle;collapsible=0;dropTarget=0;pointerEvents=0;fillColor=none;top=0;left=0;bottom=0;right=0;points=[[0,0.5],[1,0.5]];portConstraint=eastwest;" parent="q9fW0TskkadhBEuBwvXI-19" vertex="1">
                    <mxGeometry y="150" width="180" height="30" as="geometry"/>
                </mxCell>
                <mxCell id="q9fW0TskkadhBEuBwvXI-30" value="FK" style="shape=partialRectangle;connectable=0;fillColor=none;top=0;left=0;bottom=0;right=0;editable=1;overflow=hidden;" parent="q9fW0TskkadhBEuBwvXI-29" vertex="1">
                    <mxGeometry width="30" height="30" as="geometry"/>
                </mxCell>
                <mxCell id="q9fW0TskkadhBEuBwvXI-31" value="Seller ID" style="shape=partialRectangle;connectable=0;fillColor=none;top=0;left=0;bottom=0;right=0;align=left;spacingLeft=6;overflow=hidden;" parent="q9fW0TskkadhBEuBwvXI-29" vertex="1">
                    <mxGeometry x="30" width="150" height="30" as="geometry"/>
                </mxCell>
            </root>
        </mxGraphModel>
    </diagram>
    <diagram id="OvOyIQx0mU_DV_H1titN" name="2NF">
        <mxGraphModel dx="354" dy="790" grid="0" gridSize="10" guides="1" tooltips="1" connect="1" arrows="1" fold="1" page="1" pageScale="1" pageWidth="850" pageHeight="1100" math="0" shadow="0">
            <root>
                <mxCell id="XoY3qd9aGhQegyPmPfbY-0"/>
                <mxCell id="XoY3qd9aGhQegyPmPfbY-1" parent="XoY3qd9aGhQegyPmPfbY-0"/>
                <mxCell id="c539hhYq-JTJKAnkVvsh-0" value="User" style="shape=table;startSize=30;container=1;collapsible=1;childLayout=tableLayout;fixedRows=1;rowLines=0;fontStyle=1;align=center;resizeLast=1;fillColor=none;" parent="XoY3qd9aGhQegyPmPfbY-1" vertex="1">
                    <mxGeometry x="1740" y="80" width="180" height="160" as="geometry"/>
                </mxCell>
                <mxCell id="c539hhYq-JTJKAnkVvsh-1" value="" style="shape=partialRectangle;collapsible=0;dropTarget=0;pointerEvents=0;fillColor=none;top=0;left=0;bottom=1;right=0;points=[[0,0.5],[1,0.5]];portConstraint=eastwest;" parent="c539hhYq-JTJKAnkVvsh-0" vertex="1">
                    <mxGeometry y="30" width="180" height="30" as="geometry"/>
                </mxCell>
                <mxCell id="c539hhYq-JTJKAnkVvsh-2" value="PK" style="shape=partialRectangle;connectable=0;fillColor=none;top=0;left=0;bottom=0;right=0;fontStyle=1;overflow=hidden;" parent="c539hhYq-JTJKAnkVvsh-1" vertex="1">
                    <mxGeometry width="30" height="30" as="geometry"/>
                </mxCell>
                <mxCell id="c539hhYq-JTJKAnkVvsh-3" value="User ID" style="shape=partialRectangle;connectable=0;fillColor=none;top=0;left=0;bottom=0;right=0;align=left;spacingLeft=6;fontStyle=5;overflow=hidden;" parent="c539hhYq-JTJKAnkVvsh-1" vertex="1">
                    <mxGeometry x="30" width="150" height="30" as="geometry"/>
                </mxCell>
                <mxCell id="c539hhYq-JTJKAnkVvsh-4" value="" style="shape=partialRectangle;collapsible=0;dropTarget=0;pointerEvents=0;fillColor=none;top=0;left=0;bottom=0;right=0;points=[[0,0.5],[1,0.5]];portConstraint=eastwest;" parent="c539hhYq-JTJKAnkVvsh-0" vertex="1">
                    <mxGeometry y="60" width="180" height="30" as="geometry"/>
                </mxCell>
                <mxCell id="c539hhYq-JTJKAnkVvsh-5" value="" style="shape=partialRectangle;connectable=0;fillColor=none;top=0;left=0;bottom=0;right=0;editable=1;overflow=hidden;" parent="c539hhYq-JTJKAnkVvsh-4" vertex="1">
                    <mxGeometry width="30" height="30" as="geometry"/>
                </mxCell>
                <mxCell id="c539hhYq-JTJKAnkVvsh-6" value="First Name" style="shape=partialRectangle;connectable=0;fillColor=none;top=0;left=0;bottom=0;right=0;align=left;spacingLeft=6;overflow=hidden;" parent="c539hhYq-JTJKAnkVvsh-4" vertex="1">
                    <mxGeometry x="30" width="150" height="30" as="geometry"/>
                </mxCell>
                <mxCell id="c539hhYq-JTJKAnkVvsh-7" value="" style="shape=partialRectangle;collapsible=0;dropTarget=0;pointerEvents=0;fillColor=none;top=0;left=0;bottom=0;right=0;points=[[0,0.5],[1,0.5]];portConstraint=eastwest;" parent="c539hhYq-JTJKAnkVvsh-0" vertex="1">
                    <mxGeometry y="90" width="180" height="30" as="geometry"/>
                </mxCell>
                <mxCell id="c539hhYq-JTJKAnkVvsh-8" value="" style="shape=partialRectangle;connectable=0;fillColor=none;top=0;left=0;bottom=0;right=0;editable=1;overflow=hidden;" parent="c539hhYq-JTJKAnkVvsh-7" vertex="1">
                    <mxGeometry width="30" height="30" as="geometry"/>
                </mxCell>
                <mxCell id="c539hhYq-JTJKAnkVvsh-9" value="Last Name" style="shape=partialRectangle;connectable=0;fillColor=none;top=0;left=0;bottom=0;right=0;align=left;spacingLeft=6;overflow=hidden;" parent="c539hhYq-JTJKAnkVvsh-7" vertex="1">
                    <mxGeometry x="30" width="150" height="30" as="geometry"/>
                </mxCell>
                <mxCell id="c539hhYq-JTJKAnkVvsh-10" value="" style="shape=partialRectangle;collapsible=0;dropTarget=0;pointerEvents=0;fillColor=none;top=0;left=0;bottom=0;right=0;points=[[0,0.5],[1,0.5]];portConstraint=eastwest;" parent="c539hhYq-JTJKAnkVvsh-0" vertex="1">
                    <mxGeometry y="120" width="180" height="30" as="geometry"/>
                </mxCell>
                <mxCell id="c539hhYq-JTJKAnkVvsh-11" value="" style="shape=partialRectangle;connectable=0;fillColor=none;top=0;left=0;bottom=0;right=0;editable=1;overflow=hidden;" parent="c539hhYq-JTJKAnkVvsh-10" vertex="1">
                    <mxGeometry width="30" height="30" as="geometry"/>
                </mxCell>
                <mxCell id="c539hhYq-JTJKAnkVvsh-12" value="Username" style="shape=partialRectangle;connectable=0;fillColor=none;top=0;left=0;bottom=0;right=0;align=left;spacingLeft=6;overflow=hidden;" parent="c539hhYq-JTJKAnkVvsh-10" vertex="1">
                    <mxGeometry x="30" width="150" height="30" as="geometry"/>
                </mxCell>
                <mxCell id="c539hhYq-JTJKAnkVvsh-13" value="Car" style="shape=table;startSize=30;container=1;collapsible=1;childLayout=tableLayout;fixedRows=1;rowLines=0;fontStyle=1;align=center;resizeLast=1;fillColor=#2a2a2a;" parent="XoY3qd9aGhQegyPmPfbY-1" vertex="1">
                    <mxGeometry x="1019" y="314" width="180" height="277" as="geometry"/>
                </mxCell>
                <mxCell id="c539hhYq-JTJKAnkVvsh-14" value="" style="shape=partialRectangle;collapsible=0;dropTarget=0;pointerEvents=0;fillColor=none;top=0;left=0;bottom=1;right=0;points=[[0,0.5],[1,0.5]];portConstraint=eastwest;" parent="c539hhYq-JTJKAnkVvsh-13" vertex="1">
                    <mxGeometry y="30" width="180" height="30" as="geometry"/>
                </mxCell>
                <mxCell id="c539hhYq-JTJKAnkVvsh-15" value="PK" style="shape=partialRectangle;connectable=0;fillColor=none;top=0;left=0;bottom=0;right=0;fontStyle=1;overflow=hidden;" parent="c539hhYq-JTJKAnkVvsh-14" vertex="1">
                    <mxGeometry width="30" height="30" as="geometry"/>
                </mxCell>
                <mxCell id="c539hhYq-JTJKAnkVvsh-16" value="Car VIN" style="shape=partialRectangle;connectable=0;fillColor=none;top=0;left=0;bottom=0;right=0;align=left;spacingLeft=6;fontStyle=5;overflow=hidden;" parent="c539hhYq-JTJKAnkVvsh-14" vertex="1">
                    <mxGeometry x="30" width="150" height="30" as="geometry"/>
                </mxCell>
                <mxCell id="CVR1FoiIpSDYM7BUgGTq-35" style="shape=partialRectangle;collapsible=0;dropTarget=0;pointerEvents=0;fillColor=none;top=0;left=0;bottom=0;right=0;points=[[0,0.5],[1,0.5]];portConstraint=eastwest;" parent="c539hhYq-JTJKAnkVvsh-13" vertex="1">
                    <mxGeometry y="60" width="180" height="30" as="geometry"/>
                </mxCell>
                <mxCell id="CVR1FoiIpSDYM7BUgGTq-36" value="FK" style="shape=partialRectangle;connectable=0;fillColor=none;top=0;left=0;bottom=0;right=0;editable=1;overflow=hidden;" parent="CVR1FoiIpSDYM7BUgGTq-35" vertex="1">
                    <mxGeometry width="30" height="30" as="geometry"/>
                </mxCell>
                <mxCell id="CVR1FoiIpSDYM7BUgGTq-37" value="Model" style="shape=partialRectangle;connectable=0;fillColor=none;top=0;left=0;bottom=0;right=0;align=left;spacingLeft=6;overflow=hidden;" parent="CVR1FoiIpSDYM7BUgGTq-35" vertex="1">
                    <mxGeometry x="30" width="150" height="30" as="geometry"/>
                </mxCell>
                <mxCell id="c539hhYq-JTJKAnkVvsh-23" value="" style="shape=partialRectangle;collapsible=0;dropTarget=0;pointerEvents=0;fillColor=none;top=0;left=0;bottom=0;right=0;points=[[0,0.5],[1,0.5]];portConstraint=eastwest;" parent="c539hhYq-JTJKAnkVvsh-13" vertex="1">
                    <mxGeometry y="90" width="180" height="30" as="geometry"/>
                </mxCell>
                <mxCell id="c539hhYq-JTJKAnkVvsh-24" value="" style="shape=partialRectangle;connectable=0;fillColor=none;top=0;left=0;bottom=0;right=0;editable=1;overflow=hidden;" parent="c539hhYq-JTJKAnkVvsh-23" vertex="1">
                    <mxGeometry width="30" height="30" as="geometry"/>
                </mxCell>
                <mxCell id="c539hhYq-JTJKAnkVvsh-25" value="Year" style="shape=partialRectangle;connectable=0;fillColor=none;top=0;left=0;bottom=0;right=0;align=left;spacingLeft=6;overflow=hidden;" parent="c539hhYq-JTJKAnkVvsh-23" vertex="1">
                    <mxGeometry x="30" width="150" height="30" as="geometry"/>
                </mxCell>
                <mxCell id="c539hhYq-JTJKAnkVvsh-26" value="" style="shape=partialRectangle;collapsible=0;dropTarget=0;pointerEvents=0;fillColor=none;top=0;left=0;bottom=0;right=0;points=[[0,0.5],[1,0.5]];portConstraint=eastwest;" parent="c539hhYq-JTJKAnkVvsh-13" vertex="1">
                    <mxGeometry y="120" width="180" height="30" as="geometry"/>
                </mxCell>
                <mxCell id="c539hhYq-JTJKAnkVvsh-27" value="" style="shape=partialRectangle;connectable=0;fillColor=none;top=0;left=0;bottom=0;right=0;editable=1;overflow=hidden;" parent="c539hhYq-JTJKAnkVvsh-26" vertex="1">
                    <mxGeometry width="30" height="30" as="geometry"/>
                </mxCell>
                <mxCell id="c539hhYq-JTJKAnkVvsh-28" value="Mileage" style="shape=partialRectangle;connectable=0;fillColor=none;top=0;left=0;bottom=0;right=0;align=left;spacingLeft=6;overflow=hidden;" parent="c539hhYq-JTJKAnkVvsh-26" vertex="1">
                    <mxGeometry x="30" width="150" height="30" as="geometry"/>
                </mxCell>
                <mxCell id="c539hhYq-JTJKAnkVvsh-29" value="" style="shape=partialRectangle;collapsible=0;dropTarget=0;pointerEvents=0;fillColor=none;top=0;left=0;bottom=0;right=0;points=[[0,0.5],[1,0.5]];portConstraint=eastwest;" parent="c539hhYq-JTJKAnkVvsh-13" vertex="1">
                    <mxGeometry y="150" width="180" height="30" as="geometry"/>
                </mxCell>
                <mxCell id="c539hhYq-JTJKAnkVvsh-30" value="" style="shape=partialRectangle;connectable=0;fillColor=none;top=0;left=0;bottom=0;right=0;editable=1;overflow=hidden;" parent="c539hhYq-JTJKAnkVvsh-29" vertex="1">
                    <mxGeometry width="30" height="30" as="geometry"/>
                </mxCell>
                <mxCell id="c539hhYq-JTJKAnkVvsh-31" value="Drivetrain" style="shape=partialRectangle;connectable=0;fillColor=none;top=0;left=0;bottom=0;right=0;align=left;spacingLeft=6;overflow=hidden;" parent="c539hhYq-JTJKAnkVvsh-29" vertex="1">
                    <mxGeometry x="30" width="150" height="30" as="geometry"/>
                </mxCell>
                <mxCell id="c539hhYq-JTJKAnkVvsh-32" value="" style="shape=partialRectangle;collapsible=0;dropTarget=0;pointerEvents=0;fillColor=none;top=0;left=0;bottom=0;right=0;points=[[0,0.5],[1,0.5]];portConstraint=eastwest;" parent="c539hhYq-JTJKAnkVvsh-13" vertex="1">
                    <mxGeometry y="180" width="180" height="30" as="geometry"/>
                </mxCell>
                <mxCell id="c539hhYq-JTJKAnkVvsh-33" value="" style="shape=partialRectangle;connectable=0;fillColor=none;top=0;left=0;bottom=0;right=0;editable=1;overflow=hidden;" parent="c539hhYq-JTJKAnkVvsh-32" vertex="1">
                    <mxGeometry width="30" height="30" as="geometry"/>
                </mxCell>
                <mxCell id="c539hhYq-JTJKAnkVvsh-34" value="Transmission" style="shape=partialRectangle;connectable=0;fillColor=none;top=0;left=0;bottom=0;right=0;align=left;spacingLeft=6;overflow=hidden;" parent="c539hhYq-JTJKAnkVvsh-32" vertex="1">
                    <mxGeometry x="30" width="150" height="30" as="geometry"/>
                </mxCell>
                <mxCell id="--i5CYLnbnFcTR8nc06V-0" style="shape=partialRectangle;collapsible=0;dropTarget=0;pointerEvents=0;fillColor=none;top=0;left=0;bottom=0;right=0;points=[[0,0.5],[1,0.5]];portConstraint=eastwest;" parent="c539hhYq-JTJKAnkVvsh-13" vertex="1">
                    <mxGeometry y="210" width="180" height="30" as="geometry"/>
                </mxCell>
                <mxCell id="--i5CYLnbnFcTR8nc06V-1" style="shape=partialRectangle;connectable=0;fillColor=none;top=0;left=0;bottom=0;right=0;editable=1;overflow=hidden;" parent="--i5CYLnbnFcTR8nc06V-0" vertex="1">
                    <mxGeometry width="30" height="30" as="geometry"/>
                </mxCell>
                <mxCell id="--i5CYLnbnFcTR8nc06V-2" value="Car Type" style="shape=partialRectangle;connectable=0;fillColor=none;top=0;left=0;bottom=0;right=0;align=left;spacingLeft=6;overflow=hidden;" parent="--i5CYLnbnFcTR8nc06V-0" vertex="1">
                    <mxGeometry x="30" width="150" height="30" as="geometry"/>
                </mxCell>
                <mxCell id="c539hhYq-JTJKAnkVvsh-35" value="" style="shape=partialRectangle;collapsible=0;dropTarget=0;pointerEvents=0;fillColor=none;top=0;left=0;bottom=0;right=0;points=[[0,0.5],[1,0.5]];portConstraint=eastwest;" parent="c539hhYq-JTJKAnkVvsh-13" vertex="1">
                    <mxGeometry y="240" width="180" height="30" as="geometry"/>
                </mxCell>
                <mxCell id="c539hhYq-JTJKAnkVvsh-36" value="" style="shape=partialRectangle;connectable=0;fillColor=none;top=0;left=0;bottom=0;right=0;editable=1;overflow=hidden;" parent="c539hhYq-JTJKAnkVvsh-35" vertex="1">
                    <mxGeometry width="30" height="30" as="geometry"/>
                </mxCell>
                <mxCell id="c539hhYq-JTJKAnkVvsh-37" value="Color" style="shape=partialRectangle;connectable=0;fillColor=none;top=0;left=0;bottom=0;right=0;align=left;spacingLeft=6;overflow=hidden;" parent="c539hhYq-JTJKAnkVvsh-35" vertex="1">
                    <mxGeometry x="30" width="150" height="30" as="geometry"/>
                </mxCell>
                <mxCell id="c539hhYq-JTJKAnkVvsh-38" value="Transactions" style="shape=table;startSize=30;container=1;collapsible=1;childLayout=tableLayout;fixedRows=1;rowLines=0;fontStyle=1;align=center;resizeLast=1;" parent="XoY3qd9aGhQegyPmPfbY-1" vertex="1">
                    <mxGeometry x="994" y="64" width="180" height="160" as="geometry"/>
                </mxCell>
                <mxCell id="c539hhYq-JTJKAnkVvsh-39" value="" style="shape=partialRectangle;collapsible=0;dropTarget=0;pointerEvents=0;fillColor=none;top=0;left=0;bottom=1;right=0;points=[[0,0.5],[1,0.5]];portConstraint=eastwest;" parent="c539hhYq-JTJKAnkVvsh-38" vertex="1">
                    <mxGeometry y="30" width="180" height="30" as="geometry"/>
                </mxCell>
                <mxCell id="c539hhYq-JTJKAnkVvsh-40" value="PK" style="shape=partialRectangle;connectable=0;fillColor=none;top=0;left=0;bottom=0;right=0;fontStyle=1;overflow=hidden;" parent="c539hhYq-JTJKAnkVvsh-39" vertex="1">
                    <mxGeometry width="30" height="30" as="geometry"/>
                </mxCell>
                <mxCell id="c539hhYq-JTJKAnkVvsh-41" value="Transaction ID" style="shape=partialRectangle;connectable=0;fillColor=none;top=0;left=0;bottom=0;right=0;align=left;spacingLeft=6;fontStyle=5;overflow=hidden;" parent="c539hhYq-JTJKAnkVvsh-39" vertex="1">
                    <mxGeometry x="30" width="150" height="30" as="geometry"/>
                </mxCell>
                <mxCell id="c539hhYq-JTJKAnkVvsh-45" value="" style="shape=partialRectangle;collapsible=0;dropTarget=0;pointerEvents=0;fillColor=none;top=0;left=0;bottom=0;right=0;points=[[0,0.5],[1,0.5]];portConstraint=eastwest;" parent="c539hhYq-JTJKAnkVvsh-38" vertex="1">
                    <mxGeometry y="60" width="180" height="30" as="geometry"/>
                </mxCell>
                <mxCell id="c539hhYq-JTJKAnkVvsh-46" value="" style="shape=partialRectangle;connectable=0;fillColor=none;top=0;left=0;bottom=0;right=0;editable=1;overflow=hidden;" parent="c539hhYq-JTJKAnkVvsh-45" vertex="1">
                    <mxGeometry width="30" height="30" as="geometry"/>
                </mxCell>
                <mxCell id="c539hhYq-JTJKAnkVvsh-47" value="Date" style="shape=partialRectangle;connectable=0;fillColor=none;top=0;left=0;bottom=0;right=0;align=left;spacingLeft=6;overflow=hidden;" parent="c539hhYq-JTJKAnkVvsh-45" vertex="1">
                    <mxGeometry x="30" width="150" height="30" as="geometry"/>
                </mxCell>
                <mxCell id="c539hhYq-JTJKAnkVvsh-51" style="shape=partialRectangle;collapsible=0;dropTarget=0;pointerEvents=0;fillColor=none;top=0;left=0;bottom=0;right=0;points=[[0,0.5],[1,0.5]];portConstraint=eastwest;" parent="c539hhYq-JTJKAnkVvsh-38" vertex="1">
                    <mxGeometry y="90" width="180" height="30" as="geometry"/>
                </mxCell>
                <mxCell id="c539hhYq-JTJKAnkVvsh-52" value="FK" style="shape=partialRectangle;connectable=0;fillColor=none;top=0;left=0;bottom=0;right=0;editable=1;overflow=hidden;" parent="c539hhYq-JTJKAnkVvsh-51" vertex="1">
                    <mxGeometry width="30" height="30" as="geometry"/>
                </mxCell>
                <mxCell id="c539hhYq-JTJKAnkVvsh-53" value="Buyer ID" style="shape=partialRectangle;connectable=0;fillColor=none;top=0;left=0;bottom=0;right=0;align=left;spacingLeft=6;overflow=hidden;" parent="c539hhYq-JTJKAnkVvsh-51" vertex="1">
                    <mxGeometry x="30" width="150" height="30" as="geometry"/>
                </mxCell>
                <mxCell id="c539hhYq-JTJKAnkVvsh-48" value="" style="shape=partialRectangle;collapsible=0;dropTarget=0;pointerEvents=0;fillColor=none;top=0;left=0;bottom=0;right=0;points=[[0,0.5],[1,0.5]];portConstraint=eastwest;" parent="c539hhYq-JTJKAnkVvsh-38" vertex="1">
                    <mxGeometry y="120" width="180" height="30" as="geometry"/>
                </mxCell>
                <mxCell id="c539hhYq-JTJKAnkVvsh-49" value="FK" style="shape=partialRectangle;connectable=0;fillColor=none;top=0;left=0;bottom=0;right=0;editable=1;overflow=hidden;" parent="c539hhYq-JTJKAnkVvsh-48" vertex="1">
                    <mxGeometry width="30" height="30" as="geometry"/>
                </mxCell>
                <mxCell id="c539hhYq-JTJKAnkVvsh-50" value="Listing ID" style="shape=partialRectangle;connectable=0;fillColor=none;top=0;left=0;bottom=0;right=0;align=left;spacingLeft=6;overflow=hidden;" parent="c539hhYq-JTJKAnkVvsh-48" vertex="1">
                    <mxGeometry x="30" width="150" height="30" as="geometry"/>
                </mxCell>
                <mxCell id="c539hhYq-JTJKAnkVvsh-57" value="Listings" style="shape=table;startSize=30;container=1;collapsible=1;childLayout=tableLayout;fixedRows=1;rowLines=0;fontStyle=1;align=center;resizeLast=1;" parent="XoY3qd9aGhQegyPmPfbY-1" vertex="1">
                    <mxGeometry x="1430" y="250" width="180" height="190" as="geometry"/>
                </mxCell>
                <mxCell id="c539hhYq-JTJKAnkVvsh-58" value="" style="shape=partialRectangle;collapsible=0;dropTarget=0;pointerEvents=0;fillColor=none;top=0;left=0;bottom=1;right=0;points=[[0,0.5],[1,0.5]];portConstraint=eastwest;" parent="c539hhYq-JTJKAnkVvsh-57" vertex="1">
                    <mxGeometry y="30" width="180" height="30" as="geometry"/>
                </mxCell>
                <mxCell id="c539hhYq-JTJKAnkVvsh-59" value="PK" style="shape=partialRectangle;connectable=0;fillColor=none;top=0;left=0;bottom=0;right=0;fontStyle=1;overflow=hidden;" parent="c539hhYq-JTJKAnkVvsh-58" vertex="1">
                    <mxGeometry width="30" height="30" as="geometry"/>
                </mxCell>
                <mxCell id="c539hhYq-JTJKAnkVvsh-60" value="Listing ID" style="shape=partialRectangle;connectable=0;fillColor=none;top=0;left=0;bottom=0;right=0;align=left;spacingLeft=6;fontStyle=5;overflow=hidden;" parent="c539hhYq-JTJKAnkVvsh-58" vertex="1">
                    <mxGeometry x="30" width="150" height="30" as="geometry"/>
                </mxCell>
                <mxCell id="c539hhYq-JTJKAnkVvsh-61" value="" style="shape=partialRectangle;collapsible=0;dropTarget=0;pointerEvents=0;fillColor=none;top=0;left=0;bottom=0;right=0;points=[[0,0.5],[1,0.5]];portConstraint=eastwest;" parent="c539hhYq-JTJKAnkVvsh-57" vertex="1">
                    <mxGeometry y="60" width="180" height="30" as="geometry"/>
                </mxCell>
                <mxCell id="c539hhYq-JTJKAnkVvsh-62" value="FK" style="shape=partialRectangle;connectable=0;fillColor=none;top=0;left=0;bottom=0;right=0;editable=1;overflow=hidden;" parent="c539hhYq-JTJKAnkVvsh-61" vertex="1">
                    <mxGeometry width="30" height="30" as="geometry"/>
                </mxCell>
                <mxCell id="c539hhYq-JTJKAnkVvsh-63" value="Car VIN" style="shape=partialRectangle;connectable=0;fillColor=none;top=0;left=0;bottom=0;right=0;align=left;spacingLeft=6;overflow=hidden;" parent="c539hhYq-JTJKAnkVvsh-61" vertex="1">
                    <mxGeometry x="30" width="150" height="30" as="geometry"/>
                </mxCell>
                <mxCell id="c539hhYq-JTJKAnkVvsh-64" value="" style="shape=partialRectangle;collapsible=0;dropTarget=0;pointerEvents=0;fillColor=none;top=0;left=0;bottom=0;right=0;points=[[0,0.5],[1,0.5]];portConstraint=eastwest;" parent="c539hhYq-JTJKAnkVvsh-57" vertex="1">
                    <mxGeometry y="90" width="180" height="30" as="geometry"/>
                </mxCell>
                <mxCell id="c539hhYq-JTJKAnkVvsh-65" value="" style="shape=partialRectangle;connectable=0;fillColor=none;top=0;left=0;bottom=0;right=0;editable=1;overflow=hidden;" parent="c539hhYq-JTJKAnkVvsh-64" vertex="1">
                    <mxGeometry width="30" height="30" as="geometry"/>
                </mxCell>
                <mxCell id="c539hhYq-JTJKAnkVvsh-66" value="Price" style="shape=partialRectangle;connectable=0;fillColor=none;top=0;left=0;bottom=0;right=0;align=left;spacingLeft=6;overflow=hidden;" parent="c539hhYq-JTJKAnkVvsh-64" vertex="1">
                    <mxGeometry x="30" width="150" height="30" as="geometry"/>
                </mxCell>
                <mxCell id="cj_FO4uI2YhYmGXdUhjS-0" style="shape=partialRectangle;collapsible=0;dropTarget=0;pointerEvents=0;fillColor=none;top=0;left=0;bottom=0;right=0;points=[[0,0.5],[1,0.5]];portConstraint=eastwest;" parent="c539hhYq-JTJKAnkVvsh-57" vertex="1">
                    <mxGeometry y="120" width="180" height="30" as="geometry"/>
                </mxCell>
                <mxCell id="cj_FO4uI2YhYmGXdUhjS-1" style="shape=partialRectangle;connectable=0;fillColor=none;top=0;left=0;bottom=0;right=0;editable=1;overflow=hidden;" parent="cj_FO4uI2YhYmGXdUhjS-0" vertex="1">
                    <mxGeometry width="30" height="30" as="geometry"/>
                </mxCell>
                <mxCell id="cj_FO4uI2YhYmGXdUhjS-2" value="Listing Date" style="shape=partialRectangle;connectable=0;fillColor=none;top=0;left=0;bottom=0;right=0;align=left;spacingLeft=6;overflow=hidden;" parent="cj_FO4uI2YhYmGXdUhjS-0" vertex="1">
                    <mxGeometry x="30" width="150" height="30" as="geometry"/>
                </mxCell>
                <mxCell id="c539hhYq-JTJKAnkVvsh-67" value="" style="shape=partialRectangle;collapsible=0;dropTarget=0;pointerEvents=0;fillColor=none;top=0;left=0;bottom=0;right=0;points=[[0,0.5],[1,0.5]];portConstraint=eastwest;" parent="c539hhYq-JTJKAnkVvsh-57" vertex="1">
                    <mxGeometry y="150" width="180" height="30" as="geometry"/>
                </mxCell>
                <mxCell id="c539hhYq-JTJKAnkVvsh-68" value="FK" style="shape=partialRectangle;connectable=0;fillColor=none;top=0;left=0;bottom=0;right=0;editable=1;overflow=hidden;" parent="c539hhYq-JTJKAnkVvsh-67" vertex="1">
                    <mxGeometry width="30" height="30" as="geometry"/>
                </mxCell>
                <mxCell id="c539hhYq-JTJKAnkVvsh-69" value="Seller ID" style="shape=partialRectangle;connectable=0;fillColor=none;top=0;left=0;bottom=0;right=0;align=left;spacingLeft=6;overflow=hidden;" parent="c539hhYq-JTJKAnkVvsh-67" vertex="1">
                    <mxGeometry x="30" width="150" height="30" as="geometry"/>
                </mxCell>
                <mxCell id="CVR1FoiIpSDYM7BUgGTq-13" value="Model" style="shape=table;startSize=30;container=1;collapsible=1;childLayout=tableLayout;fixedRows=1;rowLines=0;fontStyle=1;align=center;resizeLast=1;" parent="XoY3qd9aGhQegyPmPfbY-1" vertex="1">
                    <mxGeometry x="1019" y="630" width="180" height="100" as="geometry"/>
                </mxCell>
                <mxCell id="CVR1FoiIpSDYM7BUgGTq-29" style="shape=partialRectangle;collapsible=0;dropTarget=0;pointerEvents=0;fillColor=none;top=0;left=0;bottom=0;right=0;points=[[0,0.5],[1,0.5]];portConstraint=eastwest;" parent="CVR1FoiIpSDYM7BUgGTq-13" vertex="1">
                    <mxGeometry y="30" width="180" height="30" as="geometry"/>
                </mxCell>
                <mxCell id="CVR1FoiIpSDYM7BUgGTq-30" value="PK" style="shape=partialRectangle;connectable=0;fillColor=none;top=0;left=0;bottom=0;right=0;fontStyle=1;overflow=hidden;" parent="CVR1FoiIpSDYM7BUgGTq-29" vertex="1">
                    <mxGeometry width="60" height="30" as="geometry"/>
                </mxCell>
                <mxCell id="CVR1FoiIpSDYM7BUgGTq-31" value="Model" style="shape=partialRectangle;connectable=0;fillColor=none;top=0;left=0;bottom=0;right=0;align=left;spacingLeft=6;fontStyle=5;overflow=hidden;" parent="CVR1FoiIpSDYM7BUgGTq-29" vertex="1">
                    <mxGeometry x="60" width="120" height="30" as="geometry"/>
                </mxCell>
                <mxCell id="CVR1FoiIpSDYM7BUgGTq-14" value="" style="shape=partialRectangle;collapsible=0;dropTarget=0;pointerEvents=0;fillColor=none;top=0;left=0;bottom=0;right=0;points=[[0,0.5],[1,0.5]];portConstraint=eastwest;" parent="CVR1FoiIpSDYM7BUgGTq-13" vertex="1">
                    <mxGeometry y="60" width="180" height="30" as="geometry"/>
                </mxCell>
                <mxCell id="CVR1FoiIpSDYM7BUgGTq-15" value="" style="shape=partialRectangle;connectable=0;fillColor=none;top=0;left=0;bottom=0;right=0;fontStyle=1;overflow=hidden;" parent="CVR1FoiIpSDYM7BUgGTq-14" vertex="1">
                    <mxGeometry width="60" height="30" as="geometry"/>
                </mxCell>
                <mxCell id="CVR1FoiIpSDYM7BUgGTq-16" value="Make" style="shape=partialRectangle;connectable=0;fillColor=none;top=0;left=0;bottom=0;right=0;align=left;spacingLeft=6;fontStyle=4;overflow=hidden;" parent="CVR1FoiIpSDYM7BUgGTq-14" vertex="1">
                    <mxGeometry x="60" width="120" height="30" as="geometry"/>
                </mxCell>
                <mxCell id="c539hhYq-JTJKAnkVvsh-92" style="edgeStyle=orthogonalEdgeStyle;rounded=0;orthogonalLoop=1;jettySize=auto;html=1;exitX=0;exitY=0.5;exitDx=0;exitDy=0;startArrow=ERmany;startFill=0;endArrow=none;endFill=0;entryX=0;entryY=0.5;entryDx=0;entryDy=0;" parent="XoY3qd9aGhQegyPmPfbY-1" source="CVR1FoiIpSDYM7BUgGTq-35" target="CVR1FoiIpSDYM7BUgGTq-29" edge="1">
                    <mxGeometry relative="1" as="geometry">
                        <mxPoint x="1019" y="705" as="targetPoint"/>
                        <Array as="points">
                            <mxPoint x="964" y="389"/>
                            <mxPoint x="964" y="675"/>
                        </Array>
                    </mxGeometry>
                </mxCell>
                <mxCell id="cj_FO4uI2YhYmGXdUhjS-3" value="" style="edgeStyle=entityRelationEdgeStyle;fontSize=12;html=1;endArrow=none;endFill=0;startArrow=ERzeroToOne;startFill=1;exitX=1;exitY=0.5;exitDx=0;exitDy=0;entryX=0;entryY=0.5;entryDx=0;entryDy=0;" parent="XoY3qd9aGhQegyPmPfbY-1" source="c539hhYq-JTJKAnkVvsh-48" target="c539hhYq-JTJKAnkVvsh-58" edge="1">
                    <mxGeometry width="100" height="100" relative="1" as="geometry">
                        <mxPoint x="1300" y="420" as="sourcePoint"/>
                        <mxPoint x="1380" y="310" as="targetPoint"/>
                    </mxGeometry>
                </mxCell>
                <mxCell id="cj_FO4uI2YhYmGXdUhjS-4" value="" style="edgeStyle=entityRelationEdgeStyle;fontSize=12;html=1;endArrow=none;endFill=0;startArrow=ERzeroToMany;startFill=1;entryX=0;entryY=0.5;entryDx=0;entryDy=0;exitX=1;exitY=0.5;exitDx=0;exitDy=0;" parent="XoY3qd9aGhQegyPmPfbY-1" source="c539hhYq-JTJKAnkVvsh-51" target="c539hhYq-JTJKAnkVvsh-1" edge="1">
                    <mxGeometry width="100" height="100" relative="1" as="geometry">
                        <mxPoint x="1183" y="183" as="sourcePoint"/>
                        <mxPoint x="1560" y="540" as="targetPoint"/>
                    </mxGeometry>
                </mxCell>
                <mxCell id="cj_FO4uI2YhYmGXdUhjS-5" value="" style="edgeStyle=entityRelationEdgeStyle;fontSize=12;html=1;endArrow=ERzeroToMany;endFill=1;entryX=0;entryY=0.5;entryDx=0;entryDy=0;" parent="XoY3qd9aGhQegyPmPfbY-1" source="c539hhYq-JTJKAnkVvsh-14" target="c539hhYq-JTJKAnkVvsh-61" edge="1">
                    <mxGeometry width="100" height="100" relative="1" as="geometry">
                        <mxPoint x="1460" y="640" as="sourcePoint"/>
                        <mxPoint x="1560" y="540" as="targetPoint"/>
                    </mxGeometry>
                </mxCell>
                <mxCell id="MDhZm9ZwVv4i3r4qahKg-1" value="" style="edgeStyle=entityRelationEdgeStyle;fontSize=12;html=1;endArrow=none;endFill=0;startArrow=ERzeroToMany;startFill=1;entryX=0;entryY=0.5;entryDx=0;entryDy=0;" parent="XoY3qd9aGhQegyPmPfbY-1" target="c539hhYq-JTJKAnkVvsh-1" edge="1">
                    <mxGeometry width="100" height="100" relative="1" as="geometry">
                        <mxPoint x="1610" y="418" as="sourcePoint"/>
                        <mxPoint x="2167" y="360" as="targetPoint"/>
                    </mxGeometry>
                </mxCell>
            </root>
        </mxGraphModel>
    </diagram>
    <diagram id="KAc0sQJNGCV96q4UXcDn" name="3NF">
        <mxGraphModel dx="555" dy="2260" grid="0" gridSize="10" guides="1" tooltips="1" connect="1" arrows="1" fold="1" page="1" pageScale="1" pageWidth="850" pageHeight="1100" math="0" shadow="0">
            <root>
                <mxCell id="UlhOeQgfwxN-g0UUcuo9-0"/>
                <mxCell id="UlhOeQgfwxN-g0UUcuo9-1" parent="UlhOeQgfwxN-g0UUcuo9-0"/>
                <mxCell id="5ijFRG4cCYM50gcq7XZt-0" value="User" style="shape=table;startSize=30;container=1;collapsible=1;childLayout=tableLayout;fixedRows=1;rowLines=0;fontStyle=1;align=center;resizeLast=1;fillColor=none;" parent="UlhOeQgfwxN-g0UUcuo9-1" vertex="1">
                    <mxGeometry x="1331.5" y="-33" width="180" height="160" as="geometry"/>
                </mxCell>
                <mxCell id="5ijFRG4cCYM50gcq7XZt-1" value="" style="shape=partialRectangle;collapsible=0;dropTarget=0;pointerEvents=0;fillColor=none;top=0;left=0;bottom=1;right=0;points=[[0,0.5],[1,0.5]];portConstraint=eastwest;" parent="5ijFRG4cCYM50gcq7XZt-0" vertex="1">
                    <mxGeometry y="30" width="180" height="30" as="geometry"/>
                </mxCell>
                <mxCell id="5ijFRG4cCYM50gcq7XZt-2" value="PK" style="shape=partialRectangle;connectable=0;fillColor=none;top=0;left=0;bottom=0;right=0;fontStyle=1;overflow=hidden;" parent="5ijFRG4cCYM50gcq7XZt-1" vertex="1">
                    <mxGeometry width="30" height="30" as="geometry"/>
                </mxCell>
                <mxCell id="5ijFRG4cCYM50gcq7XZt-3" value="User ID" style="shape=partialRectangle;connectable=0;fillColor=none;top=0;left=0;bottom=0;right=0;align=left;spacingLeft=6;fontStyle=5;overflow=hidden;" parent="5ijFRG4cCYM50gcq7XZt-1" vertex="1">
                    <mxGeometry x="30" width="150" height="30" as="geometry"/>
                </mxCell>
                <mxCell id="5ijFRG4cCYM50gcq7XZt-4" value="" style="shape=partialRectangle;collapsible=0;dropTarget=0;pointerEvents=0;fillColor=none;top=0;left=0;bottom=0;right=0;points=[[0,0.5],[1,0.5]];portConstraint=eastwest;" parent="5ijFRG4cCYM50gcq7XZt-0" vertex="1">
                    <mxGeometry y="60" width="180" height="30" as="geometry"/>
                </mxCell>
                <mxCell id="5ijFRG4cCYM50gcq7XZt-5" value="" style="shape=partialRectangle;connectable=0;fillColor=none;top=0;left=0;bottom=0;right=0;editable=1;overflow=hidden;" parent="5ijFRG4cCYM50gcq7XZt-4" vertex="1">
                    <mxGeometry width="30" height="30" as="geometry"/>
                </mxCell>
                <mxCell id="5ijFRG4cCYM50gcq7XZt-6" value="First Name" style="shape=partialRectangle;connectable=0;fillColor=none;top=0;left=0;bottom=0;right=0;align=left;spacingLeft=6;overflow=hidden;" parent="5ijFRG4cCYM50gcq7XZt-4" vertex="1">
                    <mxGeometry x="30" width="150" height="30" as="geometry"/>
                </mxCell>
                <mxCell id="5ijFRG4cCYM50gcq7XZt-7" value="" style="shape=partialRectangle;collapsible=0;dropTarget=0;pointerEvents=0;fillColor=none;top=0;left=0;bottom=0;right=0;points=[[0,0.5],[1,0.5]];portConstraint=eastwest;" parent="5ijFRG4cCYM50gcq7XZt-0" vertex="1">
                    <mxGeometry y="90" width="180" height="30" as="geometry"/>
                </mxCell>
                <mxCell id="5ijFRG4cCYM50gcq7XZt-8" value="" style="shape=partialRectangle;connectable=0;fillColor=none;top=0;left=0;bottom=0;right=0;editable=1;overflow=hidden;" parent="5ijFRG4cCYM50gcq7XZt-7" vertex="1">
                    <mxGeometry width="30" height="30" as="geometry"/>
                </mxCell>
                <mxCell id="5ijFRG4cCYM50gcq7XZt-9" value="Last Name" style="shape=partialRectangle;connectable=0;fillColor=none;top=0;left=0;bottom=0;right=0;align=left;spacingLeft=6;overflow=hidden;" parent="5ijFRG4cCYM50gcq7XZt-7" vertex="1">
                    <mxGeometry x="30" width="150" height="30" as="geometry"/>
                </mxCell>
                <mxCell id="5ijFRG4cCYM50gcq7XZt-10" value="" style="shape=partialRectangle;collapsible=0;dropTarget=0;pointerEvents=0;fillColor=none;top=0;left=0;bottom=0;right=0;points=[[0,0.5],[1,0.5]];portConstraint=eastwest;" parent="5ijFRG4cCYM50gcq7XZt-0" vertex="1">
                    <mxGeometry y="120" width="180" height="30" as="geometry"/>
                </mxCell>
                <mxCell id="5ijFRG4cCYM50gcq7XZt-11" value="" style="shape=partialRectangle;connectable=0;fillColor=none;top=0;left=0;bottom=0;right=0;editable=1;overflow=hidden;" parent="5ijFRG4cCYM50gcq7XZt-10" vertex="1">
                    <mxGeometry width="30" height="30" as="geometry"/>
                </mxCell>
                <mxCell id="5ijFRG4cCYM50gcq7XZt-12" value="Username" style="shape=partialRectangle;connectable=0;fillColor=none;top=0;left=0;bottom=0;right=0;align=left;spacingLeft=6;overflow=hidden;" parent="5ijFRG4cCYM50gcq7XZt-10" vertex="1">
                    <mxGeometry x="30" width="150" height="30" as="geometry"/>
                </mxCell>
                <mxCell id="5ijFRG4cCYM50gcq7XZt-13" value="Car" style="shape=table;startSize=30;container=1;collapsible=1;childLayout=tableLayout;fixedRows=1;rowLines=0;fontStyle=1;align=center;resizeLast=1;fillColor=#2a2a2a;" parent="UlhOeQgfwxN-g0UUcuo9-1" vertex="1">
                    <mxGeometry x="1019" y="378" width="180" height="180" as="geometry"/>
                </mxCell>
                <mxCell id="5ijFRG4cCYM50gcq7XZt-14" value="" style="shape=partialRectangle;collapsible=0;dropTarget=0;pointerEvents=0;fillColor=none;top=0;left=0;bottom=1;right=0;points=[[0,0.5],[1,0.5]];portConstraint=eastwest;" parent="5ijFRG4cCYM50gcq7XZt-13" vertex="1">
                    <mxGeometry y="30" width="180" height="30" as="geometry"/>
                </mxCell>
                <mxCell id="5ijFRG4cCYM50gcq7XZt-15" value="PK" style="shape=partialRectangle;connectable=0;fillColor=none;top=0;left=0;bottom=0;right=0;fontStyle=1;overflow=hidden;" parent="5ijFRG4cCYM50gcq7XZt-14" vertex="1">
                    <mxGeometry width="30" height="30" as="geometry"/>
                </mxCell>
                <mxCell id="5ijFRG4cCYM50gcq7XZt-16" value="Car VIN" style="shape=partialRectangle;connectable=0;fillColor=none;top=0;left=0;bottom=0;right=0;align=left;spacingLeft=6;fontStyle=5;overflow=hidden;" parent="5ijFRG4cCYM50gcq7XZt-14" vertex="1">
                    <mxGeometry x="30" width="150" height="30" as="geometry"/>
                </mxCell>
                <mxCell id="5ijFRG4cCYM50gcq7XZt-17" style="shape=partialRectangle;collapsible=0;dropTarget=0;pointerEvents=0;fillColor=none;top=0;left=0;bottom=0;right=0;points=[[0,0.5],[1,0.5]];portConstraint=eastwest;" parent="5ijFRG4cCYM50gcq7XZt-13" vertex="1">
                    <mxGeometry y="60" width="180" height="30" as="geometry"/>
                </mxCell>
                <mxCell id="5ijFRG4cCYM50gcq7XZt-18" value="FK1" style="shape=partialRectangle;connectable=0;fillColor=none;top=0;left=0;bottom=0;right=0;editable=1;overflow=hidden;" parent="5ijFRG4cCYM50gcq7XZt-17" vertex="1">
                    <mxGeometry width="30" height="30" as="geometry"/>
                </mxCell>
                <mxCell id="5ijFRG4cCYM50gcq7XZt-19" value="Model" style="shape=partialRectangle;connectable=0;fillColor=none;top=0;left=0;bottom=0;right=0;align=left;spacingLeft=6;overflow=hidden;" parent="5ijFRG4cCYM50gcq7XZt-17" vertex="1">
                    <mxGeometry x="30" width="150" height="30" as="geometry"/>
                </mxCell>
                <mxCell id="qGYKYOR4idmLxQ6RfIWI-0" style="shape=partialRectangle;collapsible=0;dropTarget=0;pointerEvents=0;fillColor=none;top=0;left=0;bottom=0;right=0;points=[[0,0.5],[1,0.5]];portConstraint=eastwest;" parent="5ijFRG4cCYM50gcq7XZt-13" vertex="1">
                    <mxGeometry y="90" width="180" height="30" as="geometry"/>
                </mxCell>
                <mxCell id="qGYKYOR4idmLxQ6RfIWI-1" value="FK2" style="shape=partialRectangle;connectable=0;fillColor=none;top=0;left=0;bottom=0;right=0;editable=1;overflow=hidden;" parent="qGYKYOR4idmLxQ6RfIWI-0" vertex="1">
                    <mxGeometry width="30" height="30" as="geometry"/>
                </mxCell>
                <mxCell id="qGYKYOR4idmLxQ6RfIWI-2" value="Year" style="shape=partialRectangle;connectable=0;fillColor=none;top=0;left=0;bottom=0;right=0;align=left;spacingLeft=6;overflow=hidden;" parent="qGYKYOR4idmLxQ6RfIWI-0" vertex="1">
                    <mxGeometry x="30" width="150" height="30" as="geometry"/>
                </mxCell>
                <mxCell id="5ijFRG4cCYM50gcq7XZt-23" value="" style="shape=partialRectangle;collapsible=0;dropTarget=0;pointerEvents=0;fillColor=none;top=0;left=0;bottom=0;right=0;points=[[0,0.5],[1,0.5]];portConstraint=eastwest;" parent="5ijFRG4cCYM50gcq7XZt-13" vertex="1">
                    <mxGeometry y="120" width="180" height="30" as="geometry"/>
                </mxCell>
                <mxCell id="5ijFRG4cCYM50gcq7XZt-24" value="" style="shape=partialRectangle;connectable=0;fillColor=none;top=0;left=0;bottom=0;right=0;editable=1;overflow=hidden;" parent="5ijFRG4cCYM50gcq7XZt-23" vertex="1">
                    <mxGeometry width="30" height="30" as="geometry"/>
                </mxCell>
                <mxCell id="5ijFRG4cCYM50gcq7XZt-25" value="Mileage" style="shape=partialRectangle;connectable=0;fillColor=none;top=0;left=0;bottom=0;right=0;align=left;spacingLeft=6;overflow=hidden;" parent="5ijFRG4cCYM50gcq7XZt-23" vertex="1">
                    <mxGeometry x="30" width="150" height="30" as="geometry"/>
                </mxCell>
                <mxCell id="5ijFRG4cCYM50gcq7XZt-35" value="" style="shape=partialRectangle;collapsible=0;dropTarget=0;pointerEvents=0;fillColor=none;top=0;left=0;bottom=0;right=0;points=[[0,0.5],[1,0.5]];portConstraint=eastwest;" parent="5ijFRG4cCYM50gcq7XZt-13" vertex="1">
                    <mxGeometry y="150" width="180" height="30" as="geometry"/>
                </mxCell>
                <mxCell id="5ijFRG4cCYM50gcq7XZt-36" value="" style="shape=partialRectangle;connectable=0;fillColor=none;top=0;left=0;bottom=0;right=0;editable=1;overflow=hidden;" parent="5ijFRG4cCYM50gcq7XZt-35" vertex="1">
                    <mxGeometry width="30" height="30" as="geometry"/>
                </mxCell>
                <mxCell id="5ijFRG4cCYM50gcq7XZt-37" value="Color" style="shape=partialRectangle;connectable=0;fillColor=none;top=0;left=0;bottom=0;right=0;align=left;spacingLeft=6;overflow=hidden;" parent="5ijFRG4cCYM50gcq7XZt-35" vertex="1">
                    <mxGeometry x="30" width="150" height="30" as="geometry"/>
                </mxCell>
                <mxCell id="5ijFRG4cCYM50gcq7XZt-38" value="Transactions" style="shape=table;startSize=30;container=1;collapsible=1;childLayout=tableLayout;fixedRows=1;rowLines=0;fontStyle=1;align=center;resizeLast=1;" parent="UlhOeQgfwxN-g0UUcuo9-1" vertex="1">
                    <mxGeometry x="716.5" y="-71" width="180" height="160" as="geometry"/>
                </mxCell>
                <mxCell id="5ijFRG4cCYM50gcq7XZt-39" value="" style="shape=partialRectangle;collapsible=0;dropTarget=0;pointerEvents=0;fillColor=none;top=0;left=0;bottom=1;right=0;points=[[0,0.5],[1,0.5]];portConstraint=eastwest;" parent="5ijFRG4cCYM50gcq7XZt-38" vertex="1">
                    <mxGeometry y="30" width="180" height="30" as="geometry"/>
                </mxCell>
                <mxCell id="5ijFRG4cCYM50gcq7XZt-40" value="PK" style="shape=partialRectangle;connectable=0;fillColor=none;top=0;left=0;bottom=0;right=0;fontStyle=1;overflow=hidden;" parent="5ijFRG4cCYM50gcq7XZt-39" vertex="1">
                    <mxGeometry width="30" height="30" as="geometry"/>
                </mxCell>
                <mxCell id="5ijFRG4cCYM50gcq7XZt-41" value="Transaction ID" style="shape=partialRectangle;connectable=0;fillColor=none;top=0;left=0;bottom=0;right=0;align=left;spacingLeft=6;fontStyle=5;overflow=hidden;" parent="5ijFRG4cCYM50gcq7XZt-39" vertex="1">
                    <mxGeometry x="30" width="150" height="30" as="geometry"/>
                </mxCell>
                <mxCell id="5ijFRG4cCYM50gcq7XZt-45" value="" style="shape=partialRectangle;collapsible=0;dropTarget=0;pointerEvents=0;fillColor=none;top=0;left=0;bottom=0;right=0;points=[[0,0.5],[1,0.5]];portConstraint=eastwest;" parent="5ijFRG4cCYM50gcq7XZt-38" vertex="1">
                    <mxGeometry y="60" width="180" height="30" as="geometry"/>
                </mxCell>
                <mxCell id="5ijFRG4cCYM50gcq7XZt-46" value="" style="shape=partialRectangle;connectable=0;fillColor=none;top=0;left=0;bottom=0;right=0;editable=1;overflow=hidden;" parent="5ijFRG4cCYM50gcq7XZt-45" vertex="1">
                    <mxGeometry width="30" height="30" as="geometry"/>
                </mxCell>
                <mxCell id="5ijFRG4cCYM50gcq7XZt-47" value="Transaction Date" style="shape=partialRectangle;connectable=0;fillColor=none;top=0;left=0;bottom=0;right=0;align=left;spacingLeft=6;overflow=hidden;" parent="5ijFRG4cCYM50gcq7XZt-45" vertex="1">
                    <mxGeometry x="30" width="150" height="30" as="geometry"/>
                </mxCell>
                <mxCell id="5ijFRG4cCYM50gcq7XZt-51" style="shape=partialRectangle;collapsible=0;dropTarget=0;pointerEvents=0;fillColor=none;top=0;left=0;bottom=0;right=0;points=[[0,0.5],[1,0.5]];portConstraint=eastwest;" parent="5ijFRG4cCYM50gcq7XZt-38" vertex="1">
                    <mxGeometry y="90" width="180" height="30" as="geometry"/>
                </mxCell>
                <mxCell id="5ijFRG4cCYM50gcq7XZt-52" value="FK" style="shape=partialRectangle;connectable=0;fillColor=none;top=0;left=0;bottom=0;right=0;editable=1;overflow=hidden;" parent="5ijFRG4cCYM50gcq7XZt-51" vertex="1">
                    <mxGeometry width="30" height="30" as="geometry"/>
                </mxCell>
                <mxCell id="5ijFRG4cCYM50gcq7XZt-53" value="Buyer ID" style="shape=partialRectangle;connectable=0;fillColor=none;top=0;left=0;bottom=0;right=0;align=left;spacingLeft=6;overflow=hidden;" parent="5ijFRG4cCYM50gcq7XZt-51" vertex="1">
                    <mxGeometry x="30" width="150" height="30" as="geometry"/>
                </mxCell>
                <mxCell id="kdseNp1qJjrp-mbi4udv-3" style="shape=partialRectangle;collapsible=0;dropTarget=0;pointerEvents=0;fillColor=none;top=0;left=0;bottom=0;right=0;points=[[0,0.5],[1,0.5]];portConstraint=eastwest;" parent="5ijFRG4cCYM50gcq7XZt-38" vertex="1">
                    <mxGeometry y="120" width="180" height="30" as="geometry"/>
                </mxCell>
                <mxCell id="kdseNp1qJjrp-mbi4udv-4" value="FK" style="shape=partialRectangle;connectable=0;fillColor=none;top=0;left=0;bottom=0;right=0;editable=1;overflow=hidden;" parent="kdseNp1qJjrp-mbi4udv-3" vertex="1">
                    <mxGeometry width="30" height="30" as="geometry"/>
                </mxCell>
                <mxCell id="kdseNp1qJjrp-mbi4udv-5" value="Listing ID" style="shape=partialRectangle;connectable=0;fillColor=none;top=0;left=0;bottom=0;right=0;align=left;spacingLeft=6;overflow=hidden;" parent="kdseNp1qJjrp-mbi4udv-3" vertex="1">
                    <mxGeometry x="30" width="150" height="30" as="geometry"/>
                </mxCell>
                <mxCell id="5ijFRG4cCYM50gcq7XZt-57" value="Listings" style="shape=table;startSize=30;container=1;collapsible=1;childLayout=tableLayout;fixedRows=1;rowLines=0;fontStyle=1;align=center;resizeLast=1;" parent="UlhOeQgfwxN-g0UUcuo9-1" vertex="1">
                    <mxGeometry x="1019" y="130" width="180" height="220" as="geometry"/>
                </mxCell>
                <mxCell id="5ijFRG4cCYM50gcq7XZt-58" value="" style="shape=partialRectangle;collapsible=0;dropTarget=0;pointerEvents=0;fillColor=none;top=0;left=0;bottom=1;right=0;points=[[0,0.5],[1,0.5]];portConstraint=eastwest;" parent="5ijFRG4cCYM50gcq7XZt-57" vertex="1">
                    <mxGeometry y="30" width="180" height="30" as="geometry"/>
                </mxCell>
                <mxCell id="5ijFRG4cCYM50gcq7XZt-59" value="PK" style="shape=partialRectangle;connectable=0;fillColor=none;top=0;left=0;bottom=0;right=0;fontStyle=1;overflow=hidden;" parent="5ijFRG4cCYM50gcq7XZt-58" vertex="1">
                    <mxGeometry width="30" height="30" as="geometry"/>
                </mxCell>
                <mxCell id="5ijFRG4cCYM50gcq7XZt-60" value="Listing ID" style="shape=partialRectangle;connectable=0;fillColor=none;top=0;left=0;bottom=0;right=0;align=left;spacingLeft=6;fontStyle=5;overflow=hidden;" parent="5ijFRG4cCYM50gcq7XZt-58" vertex="1">
                    <mxGeometry x="30" width="150" height="30" as="geometry"/>
                </mxCell>
                <mxCell id="5ijFRG4cCYM50gcq7XZt-61" value="" style="shape=partialRectangle;collapsible=0;dropTarget=0;pointerEvents=0;fillColor=none;top=0;left=0;bottom=0;right=0;points=[[0,0.5],[1,0.5]];portConstraint=eastwest;" parent="5ijFRG4cCYM50gcq7XZt-57" vertex="1">
                    <mxGeometry y="60" width="180" height="30" as="geometry"/>
                </mxCell>
                <mxCell id="5ijFRG4cCYM50gcq7XZt-62" value="FK" style="shape=partialRectangle;connectable=0;fillColor=none;top=0;left=0;bottom=0;right=0;editable=1;overflow=hidden;" parent="5ijFRG4cCYM50gcq7XZt-61" vertex="1">
                    <mxGeometry width="30" height="30" as="geometry"/>
                </mxCell>
                <mxCell id="5ijFRG4cCYM50gcq7XZt-63" value="Car VIN" style="shape=partialRectangle;connectable=0;fillColor=none;top=0;left=0;bottom=0;right=0;align=left;spacingLeft=6;overflow=hidden;" parent="5ijFRG4cCYM50gcq7XZt-61" vertex="1">
                    <mxGeometry x="30" width="150" height="30" as="geometry"/>
                </mxCell>
                <mxCell id="5ijFRG4cCYM50gcq7XZt-64" value="" style="shape=partialRectangle;collapsible=0;dropTarget=0;pointerEvents=0;fillColor=none;top=0;left=0;bottom=0;right=0;points=[[0,0.5],[1,0.5]];portConstraint=eastwest;" parent="5ijFRG4cCYM50gcq7XZt-57" vertex="1">
                    <mxGeometry y="90" width="180" height="30" as="geometry"/>
                </mxCell>
                <mxCell id="5ijFRG4cCYM50gcq7XZt-65" value="" style="shape=partialRectangle;connectable=0;fillColor=none;top=0;left=0;bottom=0;right=0;editable=1;overflow=hidden;" parent="5ijFRG4cCYM50gcq7XZt-64" vertex="1">
                    <mxGeometry width="30" height="30" as="geometry"/>
                </mxCell>
                <mxCell id="5ijFRG4cCYM50gcq7XZt-66" value="Price" style="shape=partialRectangle;connectable=0;fillColor=none;top=0;left=0;bottom=0;right=0;align=left;spacingLeft=6;overflow=hidden;" parent="5ijFRG4cCYM50gcq7XZt-64" vertex="1">
                    <mxGeometry x="30" width="150" height="30" as="geometry"/>
                </mxCell>
                <mxCell id="wljDdMJD9_4QWucn7p58-0" style="shape=partialRectangle;collapsible=0;dropTarget=0;pointerEvents=0;fillColor=none;top=0;left=0;bottom=0;right=0;points=[[0,0.5],[1,0.5]];portConstraint=eastwest;" parent="5ijFRG4cCYM50gcq7XZt-57" vertex="1">
                    <mxGeometry y="120" width="180" height="30" as="geometry"/>
                </mxCell>
                <mxCell id="wljDdMJD9_4QWucn7p58-1" style="shape=partialRectangle;connectable=0;fillColor=none;top=0;left=0;bottom=0;right=0;editable=1;overflow=hidden;" parent="wljDdMJD9_4QWucn7p58-0" vertex="1">
                    <mxGeometry width="30" height="30" as="geometry"/>
                </mxCell>
                <mxCell id="wljDdMJD9_4QWucn7p58-2" value="Listing Date" style="shape=partialRectangle;connectable=0;fillColor=none;top=0;left=0;bottom=0;right=0;align=left;spacingLeft=6;overflow=hidden;" parent="wljDdMJD9_4QWucn7p58-0" vertex="1">
                    <mxGeometry x="30" width="150" height="30" as="geometry"/>
                </mxCell>
                <mxCell id="5ijFRG4cCYM50gcq7XZt-67" value="" style="shape=partialRectangle;collapsible=0;dropTarget=0;pointerEvents=0;fillColor=none;top=0;left=0;bottom=0;right=0;points=[[0,0.5],[1,0.5]];portConstraint=eastwest;" parent="5ijFRG4cCYM50gcq7XZt-57" vertex="1">
                    <mxGeometry y="150" width="180" height="30" as="geometry"/>
                </mxCell>
                <mxCell id="5ijFRG4cCYM50gcq7XZt-68" value="FK" style="shape=partialRectangle;connectable=0;fillColor=none;top=0;left=0;bottom=0;right=0;editable=1;overflow=hidden;" parent="5ijFRG4cCYM50gcq7XZt-67" vertex="1">
                    <mxGeometry width="30" height="30" as="geometry"/>
                </mxCell>
                <mxCell id="5ijFRG4cCYM50gcq7XZt-69" value="Seller ID" style="shape=partialRectangle;connectable=0;fillColor=none;top=0;left=0;bottom=0;right=0;align=left;spacingLeft=6;overflow=hidden;" parent="5ijFRG4cCYM50gcq7XZt-67" vertex="1">
                    <mxGeometry x="30" width="150" height="30" as="geometry"/>
                </mxCell>
                <mxCell id="IgXVRIddRVg7RURdrwjh-0" style="shape=partialRectangle;collapsible=0;dropTarget=0;pointerEvents=0;fillColor=none;top=0;left=0;bottom=0;right=0;points=[[0,0.5],[1,0.5]];portConstraint=eastwest;" vertex="1" parent="5ijFRG4cCYM50gcq7XZt-57">
                    <mxGeometry y="180" width="180" height="30" as="geometry"/>
                </mxCell>
                <mxCell id="IgXVRIddRVg7RURdrwjh-1" style="shape=partialRectangle;connectable=0;fillColor=none;top=0;left=0;bottom=0;right=0;editable=1;overflow=hidden;" vertex="1" parent="IgXVRIddRVg7RURdrwjh-0">
                    <mxGeometry width="30" height="30" as="geometry"/>
                </mxCell>
                <mxCell id="IgXVRIddRVg7RURdrwjh-2" value="Status" style="shape=partialRectangle;connectable=0;fillColor=none;top=0;left=0;bottom=0;right=0;align=left;spacingLeft=6;overflow=hidden;" vertex="1" parent="IgXVRIddRVg7RURdrwjh-0">
                    <mxGeometry x="30" width="150" height="30" as="geometry"/>
                </mxCell>
                <mxCell id="5ijFRG4cCYM50gcq7XZt-84" style="edgeStyle=orthogonalEdgeStyle;rounded=0;orthogonalLoop=1;jettySize=auto;html=1;startArrow=ERmany;startFill=0;endArrow=none;endFill=0;entryX=0;entryY=0.5;entryDx=0;entryDy=0;" parent="UlhOeQgfwxN-g0UUcuo9-1" target="vCXL-ZAKMM8lg1I0YrLj-8" edge="1">
                    <mxGeometry relative="1" as="geometry">
                        <mxPoint x="1024" y="623" as="targetPoint"/>
                        <Array as="points">
                            <mxPoint x="964" y="453"/>
                            <mxPoint x="964" y="623"/>
                            <mxPoint x="1047" y="623"/>
                        </Array>
                        <mxPoint x="1019" y="453" as="sourcePoint"/>
                    </mxGeometry>
                </mxCell>
                <mxCell id="LXLEzH1GNg1gX_MlaR0S-43" style="edgeStyle=orthogonalEdgeStyle;rounded=0;orthogonalLoop=1;jettySize=auto;html=1;exitX=0;exitY=0.5;exitDx=0;exitDy=0;entryX=0;entryY=0.5;entryDx=0;entryDy=0;startArrow=ERmany;startFill=0;endArrow=none;endFill=0;" parent="UlhOeQgfwxN-g0UUcuo9-1" target="5ijFRG4cCYM50gcq7XZt-14" edge="1">
                    <mxGeometry relative="1" as="geometry"/>
                </mxCell>
                <mxCell id="LXLEzH1GNg1gX_MlaR0S-45" style="edgeStyle=orthogonalEdgeStyle;rounded=0;orthogonalLoop=1;jettySize=auto;html=1;exitX=0;exitY=0.5;exitDx=0;exitDy=0;startArrow=ERmany;startFill=0;endArrow=none;endFill=0;entryX=0;entryY=0.5;entryDx=0;entryDy=0;" parent="UlhOeQgfwxN-g0UUcuo9-1" target="5ijFRG4cCYM50gcq7XZt-1" edge="1">
                    <mxGeometry relative="1" as="geometry">
                        <mxPoint x="862" y="243" as="targetPoint"/>
                    </mxGeometry>
                </mxCell>
                <mxCell id="T5-B_TfNcKf7AJUiQAPl-0" value="" style="edgeStyle=entityRelationEdgeStyle;fontSize=12;html=1;endArrow=none;endFill=0;startArrow=ERzeroToMany;startFill=1;entryX=0;entryY=0.5;entryDx=0;entryDy=0;exitX=1;exitY=0.5;exitDx=0;exitDy=0;" parent="UlhOeQgfwxN-g0UUcuo9-1" source="5ijFRG4cCYM50gcq7XZt-51" target="5ijFRG4cCYM50gcq7XZt-1" edge="1">
                    <mxGeometry width="100" height="100" relative="1" as="geometry">
                        <mxPoint x="1770.5" y="68" as="sourcePoint"/>
                        <mxPoint x="2336.5" y="24" as="targetPoint"/>
                    </mxGeometry>
                </mxCell>
                <mxCell id="T5-B_TfNcKf7AJUiQAPl-1" value="" style="edgeStyle=entityRelationEdgeStyle;fontSize=12;html=1;endArrow=none;endFill=0;startArrow=ERzeroToMany;startFill=1;entryX=0;entryY=0.5;entryDx=0;entryDy=0;exitX=1;exitY=0.5;exitDx=0;exitDy=0;" parent="UlhOeQgfwxN-g0UUcuo9-1" source="5ijFRG4cCYM50gcq7XZt-67" target="5ijFRG4cCYM50gcq7XZt-1" edge="1">
                    <mxGeometry width="100" height="100" relative="1" as="geometry">
                        <mxPoint x="906.5" y="74" as="sourcePoint"/>
                        <mxPoint x="1341.5" y="22" as="targetPoint"/>
                    </mxGeometry>
                </mxCell>
                <mxCell id="FFKaJ6P4tWCk1XD9hfJ3-0" value="" style="edgeStyle=entityRelationEdgeStyle;fontSize=12;html=1;endArrow=none;endFill=0;startArrow=ERzeroToOne;startFill=1;exitX=1;exitY=0.5;exitDx=0;exitDy=0;entryX=0;entryY=0.5;entryDx=0;entryDy=0;" parent="UlhOeQgfwxN-g0UUcuo9-1" source="kdseNp1qJjrp-mbi4udv-3" target="5ijFRG4cCYM50gcq7XZt-58" edge="1">
                    <mxGeometry width="100" height="100" relative="1" as="geometry">
                        <mxPoint x="1770.5" y="98" as="sourcePoint"/>
                        <mxPoint x="2026.5" y="194" as="targetPoint"/>
                    </mxGeometry>
                </mxCell>
                <mxCell id="FFKaJ6P4tWCk1XD9hfJ3-1" style="edgeStyle=orthogonalEdgeStyle;rounded=0;orthogonalLoop=1;jettySize=auto;html=1;exitX=0;exitY=0.5;exitDx=0;exitDy=0;entryX=0;entryY=0.5;entryDx=0;entryDy=0;startArrow=ERzeroToMany;startFill=1;endArrow=none;endFill=0;" parent="UlhOeQgfwxN-g0UUcuo9-1" source="5ijFRG4cCYM50gcq7XZt-61" target="5ijFRG4cCYM50gcq7XZt-14" edge="1">
                    <mxGeometry relative="1" as="geometry"/>
                </mxCell>
                <mxCell id="vCXL-ZAKMM8lg1I0YrLj-0" value="Make" style="shape=table;startSize=30;container=1;collapsible=1;childLayout=tableLayout;fixedRows=1;rowLines=0;fontStyle=1;align=center;resizeLast=1;" parent="UlhOeQgfwxN-g0UUcuo9-1" vertex="1">
                    <mxGeometry x="1329" y="578" width="180" height="100" as="geometry"/>
                </mxCell>
                <mxCell id="vCXL-ZAKMM8lg1I0YrLj-1" value="" style="shape=partialRectangle;collapsible=0;dropTarget=0;pointerEvents=0;fillColor=none;top=0;left=0;bottom=1;right=0;points=[[0,0.5],[1,0.5]];portConstraint=eastwest;" parent="vCXL-ZAKMM8lg1I0YrLj-0" vertex="1">
                    <mxGeometry y="30" width="180" height="30" as="geometry"/>
                </mxCell>
                <mxCell id="vCXL-ZAKMM8lg1I0YrLj-2" value="PK" style="shape=partialRectangle;connectable=0;fillColor=none;top=0;left=0;bottom=0;right=0;fontStyle=1;overflow=hidden;" parent="vCXL-ZAKMM8lg1I0YrLj-1" vertex="1">
                    <mxGeometry width="60" height="30" as="geometry"/>
                </mxCell>
                <mxCell id="vCXL-ZAKMM8lg1I0YrLj-3" value="Model" style="shape=partialRectangle;connectable=0;fillColor=none;top=0;left=0;bottom=0;right=0;align=left;spacingLeft=6;fontStyle=5;overflow=hidden;" parent="vCXL-ZAKMM8lg1I0YrLj-1" vertex="1">
                    <mxGeometry x="60" width="120" height="30" as="geometry"/>
                </mxCell>
                <mxCell id="vCXL-ZAKMM8lg1I0YrLj-4" value="" style="shape=partialRectangle;collapsible=0;dropTarget=0;pointerEvents=0;fillColor=none;top=0;left=0;bottom=0;right=0;points=[[0,0.5],[1,0.5]];portConstraint=eastwest;" parent="vCXL-ZAKMM8lg1I0YrLj-0" vertex="1">
                    <mxGeometry y="60" width="180" height="30" as="geometry"/>
                </mxCell>
                <mxCell id="vCXL-ZAKMM8lg1I0YrLj-5" value="" style="shape=partialRectangle;connectable=0;fillColor=none;top=0;left=0;bottom=0;right=0;editable=1;overflow=hidden;" parent="vCXL-ZAKMM8lg1I0YrLj-4" vertex="1">
                    <mxGeometry width="60" height="30" as="geometry"/>
                </mxCell>
                <mxCell id="vCXL-ZAKMM8lg1I0YrLj-6" value="Make" style="shape=partialRectangle;connectable=0;fillColor=none;top=0;left=0;bottom=0;right=0;align=left;spacingLeft=6;overflow=hidden;" parent="vCXL-ZAKMM8lg1I0YrLj-4" vertex="1">
                    <mxGeometry x="60" width="120" height="30" as="geometry"/>
                </mxCell>
                <mxCell id="vCXL-ZAKMM8lg1I0YrLj-7" value="Model" style="shape=table;startSize=30;container=1;collapsible=1;childLayout=tableLayout;fixedRows=1;rowLines=0;fontStyle=1;align=center;resizeLast=1;fillColor=#2a2a2a;" parent="UlhOeQgfwxN-g0UUcuo9-1" vertex="1">
                    <mxGeometry x="1052" y="578" width="180" height="191.25" as="geometry"/>
                </mxCell>
                <mxCell id="vCXL-ZAKMM8lg1I0YrLj-8" value="" style="shape=partialRectangle;collapsible=0;dropTarget=0;pointerEvents=0;fillColor=none;top=0;left=0;bottom=0;right=0;points=[[0,0.5],[1,0.5]];portConstraint=eastwest;" parent="vCXL-ZAKMM8lg1I0YrLj-7" vertex="1">
                    <mxGeometry y="30" width="180" height="30" as="geometry"/>
                </mxCell>
                <mxCell id="vCXL-ZAKMM8lg1I0YrLj-9" value="PK, FK" style="shape=partialRectangle;connectable=0;fillColor=none;top=0;left=0;bottom=0;right=0;fontStyle=1;overflow=hidden;" parent="vCXL-ZAKMM8lg1I0YrLj-8" vertex="1">
                    <mxGeometry width="60" height="30" as="geometry"/>
                </mxCell>
                <mxCell id="vCXL-ZAKMM8lg1I0YrLj-10" value="Model" style="shape=partialRectangle;connectable=0;fillColor=none;top=0;left=0;bottom=0;right=0;align=left;spacingLeft=6;fontStyle=5;overflow=hidden;" parent="vCXL-ZAKMM8lg1I0YrLj-8" vertex="1">
                    <mxGeometry x="60" width="120" height="30" as="geometry"/>
                </mxCell>
                <mxCell id="vCXL-ZAKMM8lg1I0YrLj-14" value="" style="shape=partialRectangle;collapsible=0;dropTarget=0;pointerEvents=0;fillColor=none;top=0;left=0;bottom=1;right=0;points=[[0,0.5],[1,0.5]];portConstraint=eastwest;" parent="vCXL-ZAKMM8lg1I0YrLj-7" vertex="1">
                    <mxGeometry y="60" width="180" height="32" as="geometry"/>
                </mxCell>
                <mxCell id="vCXL-ZAKMM8lg1I0YrLj-15" value="PK" style="shape=partialRectangle;connectable=0;fillColor=none;top=0;left=0;bottom=0;right=0;fontStyle=1;overflow=hidden;" parent="vCXL-ZAKMM8lg1I0YrLj-14" vertex="1">
                    <mxGeometry width="60" height="32" as="geometry"/>
                </mxCell>
                <mxCell id="vCXL-ZAKMM8lg1I0YrLj-16" value="Year" style="shape=partialRectangle;connectable=0;fillColor=none;top=0;left=0;bottom=0;right=0;align=left;spacingLeft=6;fontStyle=5;overflow=hidden;" parent="vCXL-ZAKMM8lg1I0YrLj-14" vertex="1">
                    <mxGeometry x="60" width="120" height="32" as="geometry"/>
                </mxCell>
                <mxCell id="vCXL-ZAKMM8lg1I0YrLj-17" value="" style="shape=partialRectangle;collapsible=0;dropTarget=0;pointerEvents=0;fillColor=none;top=0;left=0;bottom=0;right=0;points=[[0,0.5],[1,0.5]];portConstraint=eastwest;" parent="vCXL-ZAKMM8lg1I0YrLj-7" vertex="1">
                    <mxGeometry y="92" width="180" height="30" as="geometry"/>
                </mxCell>
                <mxCell id="vCXL-ZAKMM8lg1I0YrLj-18" value="" style="shape=partialRectangle;connectable=0;fillColor=none;top=0;left=0;bottom=0;right=0;editable=1;overflow=hidden;" parent="vCXL-ZAKMM8lg1I0YrLj-17" vertex="1">
                    <mxGeometry width="60" height="30" as="geometry"/>
                </mxCell>
                <mxCell id="vCXL-ZAKMM8lg1I0YrLj-19" value="Drivetrain" style="shape=partialRectangle;connectable=0;fillColor=none;top=0;left=0;bottom=0;right=0;align=left;spacingLeft=6;overflow=hidden;" parent="vCXL-ZAKMM8lg1I0YrLj-17" vertex="1">
                    <mxGeometry x="60" width="120" height="30" as="geometry"/>
                </mxCell>
                <mxCell id="vCXL-ZAKMM8lg1I0YrLj-20" value="" style="shape=partialRectangle;collapsible=0;dropTarget=0;pointerEvents=0;fillColor=none;top=0;left=0;bottom=0;right=0;points=[[0,0.5],[1,0.5]];portConstraint=eastwest;" parent="vCXL-ZAKMM8lg1I0YrLj-7" vertex="1">
                    <mxGeometry y="122" width="180" height="30" as="geometry"/>
                </mxCell>
                <mxCell id="vCXL-ZAKMM8lg1I0YrLj-21" value="" style="shape=partialRectangle;connectable=0;fillColor=none;top=0;left=0;bottom=0;right=0;editable=1;overflow=hidden;" parent="vCXL-ZAKMM8lg1I0YrLj-20" vertex="1">
                    <mxGeometry width="60" height="30" as="geometry"/>
                </mxCell>
                <mxCell id="vCXL-ZAKMM8lg1I0YrLj-22" value="Transmission" style="shape=partialRectangle;connectable=0;fillColor=none;top=0;left=0;bottom=0;right=0;align=left;spacingLeft=6;overflow=hidden;" parent="vCXL-ZAKMM8lg1I0YrLj-20" vertex="1">
                    <mxGeometry x="60" width="120" height="30" as="geometry"/>
                </mxCell>
                <mxCell id="vCXL-ZAKMM8lg1I0YrLj-23" value="" style="shape=partialRectangle;collapsible=0;dropTarget=0;pointerEvents=0;fillColor=none;top=0;left=0;bottom=0;right=0;points=[[0,0.5],[1,0.5]];portConstraint=eastwest;" parent="vCXL-ZAKMM8lg1I0YrLj-7" vertex="1">
                    <mxGeometry y="152" width="180" height="30" as="geometry"/>
                </mxCell>
                <mxCell id="vCXL-ZAKMM8lg1I0YrLj-24" value="" style="shape=partialRectangle;connectable=0;fillColor=none;top=0;left=0;bottom=0;right=0;editable=1;overflow=hidden;" parent="vCXL-ZAKMM8lg1I0YrLj-23" vertex="1">
                    <mxGeometry width="60" height="30" as="geometry"/>
                </mxCell>
                <mxCell id="vCXL-ZAKMM8lg1I0YrLj-25" value="Car type" style="shape=partialRectangle;connectable=0;fillColor=none;top=0;left=0;bottom=0;right=0;align=left;spacingLeft=6;overflow=hidden;" parent="vCXL-ZAKMM8lg1I0YrLj-23" vertex="1">
                    <mxGeometry x="60" width="120" height="30" as="geometry"/>
                </mxCell>
                <mxCell id="vCXL-ZAKMM8lg1I0YrLj-26" style="edgeStyle=orthogonalEdgeStyle;rounded=0;orthogonalLoop=1;jettySize=auto;html=1;startArrow=ERmany;startFill=0;endArrow=none;endFill=0;entryX=0;entryY=0.5;entryDx=0;entryDy=0;" parent="UlhOeQgfwxN-g0UUcuo9-1" source="vCXL-ZAKMM8lg1I0YrLj-8" target="vCXL-ZAKMM8lg1I0YrLj-1" edge="1">
                    <mxGeometry relative="1" as="geometry">
                        <mxPoint x="1308" y="711" as="targetPoint"/>
                        <mxPoint x="1232" y="656" as="sourcePoint"/>
                        <Array as="points">
                            <mxPoint x="1255" y="623"/>
                            <mxPoint x="1255" y="623"/>
                        </Array>
                    </mxGeometry>
                </mxCell>
                <mxCell id="JwymWAtpAgx_DbI58SVz-0" style="edgeStyle=orthogonalEdgeStyle;rounded=0;orthogonalLoop=1;jettySize=auto;html=1;exitX=0;exitY=0.5;exitDx=0;exitDy=0;entryX=0;entryY=0.5;entryDx=0;entryDy=0;endArrow=none;endFill=0;startArrow=ERmany;startFill=0;" parent="UlhOeQgfwxN-g0UUcuo9-1" source="qGYKYOR4idmLxQ6RfIWI-0" target="vCXL-ZAKMM8lg1I0YrLj-14" edge="1">
                    <mxGeometry relative="1" as="geometry"/>
                </mxCell>
            </root>
        </mxGraphModel>
    </diagram>
</mxfile>